<?xml version="1.0" encoding="UTF-8" standalone="no"?>
<svg
   fill-rule="evenodd"
   stroke-miterlimit="1.414"
   viewBox="0 0 128 128"
   clip-rule="evenodd"
   stroke-linejoin="round"
   aria-label="Logo"
   version="1.1"
   id="svg12"
   width="128"
   height="128"
   xmlns="http://www.w3.org/2000/svg"
   xmlns:svg="http://www.w3.org/2000/svg">
  <defs
     id="defs12" />
  <path
     d="m 62.816406,4.4667969 c -3.108089,0.033165 -6.208942,0.8976804 -8.953125,2.5898437 -9.319305,5.7464084 -23.85867,14.7115774 -33.24414,20.5000004 -5.660394,3.49019 -9.107422,9.662943 -9.107422,16.3125 v 41.410156 c 0,6.595963 3.499882,12.695017 9.193359,16.023433 l 34.644531,20.25196 c 4.605066,2.6929 10.291819,2.75026 14.953125,0.15429 10.11659,-5.63592 28.033772,-15.61389 38.355466,-21.36328 4.89619,-2.729288 7.92969,-7.891937 7.92969,-13.496091 v -4.74414 h 0.008 V 41.660156 c 0,-5.259436 -2.78604,-10.124608 -7.32031,-12.789062 C 99.543559,23.153467 82.351724,13.0523 71.822266,6.8652344 69.041693,5.2322885 65.924495,4.4336318 62.816406,4.4667969 Z M 37.796875,29.449219 H 52.138672 V 54.419922 H 75.929687 V 29.449219 H 90.314453 V 98.003906 H 75.929687 V 68.029297 H 52.138672 V 98.003906 H 37.796875 Z"
     style="fill:#ffffff;stroke-width:0.330824"
     id="path12" />
  <path
     fill="#c9177e"
     d="m 63.048207,0 h 0.09164 l 0.08171,9.9247118e-4 h 0.467784 l 0.08171,0.003308239 h 0.0099 l 0.08171,0.00330824 h 0.0089 l 0.08271,0.00330823 h 0.0066 l 0.08271,0.0033082 h 0.0099 l 0.0794,0.0033082 h 0.0099 l 0.0794,0.0033082 h 0.0066 l 0.08271,0.0033082 h 0.0099 l 0.0827,0.0066165 h 0.0099 l 0.0794,0.0066165 h 0.0066 l 0.0794,0.0066165 h 0.0099 l 0.08271,0.0066165 h 0.0066 l 0.0794,0.0066165 h 0.0099 l 0.08271,0.0066165 h 0.0099 l 0.08271,0.0066165 h 0.0099 l 0.08271,0.0066165 h 0.0099 l 0.0794,0.0066165 h 0.0099 l 0.0794,0.0066165 h 0.0099 l 0.08271,0.0066165 h 0.0099 l 0.08271,0.0099247 h 0.0099 l 0.08271,0.009925 h 0.0066 l 0.0794,0.009925 h 0.0099 l 0.0794,0.009925 h 0.0099 l 0.08271,0.009925 h 0.0099 l 0.08271,0.009925 h 0.0066 l 0.0794,0.009925 h 0.0099 l 0.08271,0.009925 h 0.0099 l 0.0794,0.0132329 0.0099,0.003308 0.08271,0.0132329 h 0.0099 l 0.0794,0.0132329 h 0.0066 l 0.08271,0.013233 h 0.0099 l 0.0794,0.0132329 h 0.0099 l 0.0794,0.013233 h 0.0066 l 0.08271,0.0132329 h 0.0099 l 0.0794,0.0132329 0.0099,0.003308 0.0794,0.013233 0.0099,0.003308 0.0794,0.0165412 h 0.0099 l 0.0794,0.0132329 h 0.0099 l 0.0794,0.0165412 h 0.0099 l 0.08271,0.0165412 h 0.0066 l 0.0794,0.0165412 h 0.0099 l 0.0794,0.0165412 h 0.0066 l 0.08271,0.0165412 0.0099,0.003308 0.08271,0.0165412 h 0.0066 l 0.0794,0.0198494 0.0099,0.003308 0.0794,0.0198494 h 0.0099 l 0.08271,0.0198494 0.0066,0.003308 0.0794,0.0165412 0.0099,0.003308 0.0794,0.0165412 0.0066,0.003308 0.0794,0.0198494 h 0.0099 l 0.0794,0.0198494 0.0099,0.003308 0.0794,0.0198494 0.0066,0.003308 0.08271,0.0198494 0.0066,0.003308 0.0794,0.0198494 0.0099,0.003308 0.0794,0.0198494 h 0.0066 l 0.0794,0.0231577 h 0.0099 l 0.08271,0.0198494 0.0099,0.003308 0.0794,0.0198494 h 0.0099 l 0.0794,0.0231577 0.0099,0.003308 0.0794,0.0231577 0.0099,0.003308 0.0794,0.0231577 0.0099,0.003308 0.0794,0.0231577 0.0066,0.003308 0.0794,0.0231577 0.0099,0.003308 0.0794,0.0231577 0.0099,0.003308 0.0794,0.0231577 0.0099,0.003308 0.0794,0.0264659 0.0066,0.003308 0.0794,0.0264659 h 0.0099 l 0.0794,0.0264659 h 0.0099 l 0.0794,0.026466 0.0099,0.00331 0.0794,0.026466 0.0099,0.00331 0.0794,0.026466 0.0066,0.00331 0.0794,0.026466 0.0099,0.00331 0.0794,0.026466 0.0066,0.00331 0.0794,0.026466 0.0066,0.00331 0.07609,0.026466 0.0099,0.00331 0.07609,0.026466 0.0099,0.00331 0.07609,0.029774 0.0099,0.00331 0.0794,0.029774 0.0099,0.00331 0.07609,0.029774 0.0066,0.00331 0.0794,0.026466 0.0066,0.00331 0.0794,0.029774 0.0099,0.00331 0.0794,0.029774 0.0099,0.00331 0.07609,0.029774 0.0099,0.00331 0.07609,0.033082 0.0066,0.00331 0.0794,0.029774 0.0099,0.00331 0.07609,0.033082 0.0099,0.00331 0.0794,0.033082 0.0099,0.00331 0.0794,0.033082 0.0066,0.00331 0.0794,0.033082 0.0066,0.00331 0.07609,0.033082 0.0066,0.00331 0.07609,0.033082 0.0066,0.00331 0.0794,0.033082 0.0066,0.00331 0.07609,0.033082 0.0099,0.00331 0.07609,0.033082 0.0099,0.00331 0.07609,0.033082 0.0066,0.00331 0.07609,0.036391 0.0099,0.00331 0.07609,0.036391 0.0099,0.00331 0.07609,0.036391 0.0066,0.00331 0.07609,0.036391 0.0066,0.00331 0.07609,0.036391 0.0099,0.00331 0.07609,0.036391 0.0099,0.00331 0.07609,0.036391 0.0099,0.00331 0.07609,0.036391 0.0066,0.00331 0.07609,0.039699 0.0066,0.00662 0.07609,0.036391 0.0066,0.00331 0.07278,0.039699 0.0099,0.00331 0.07609,0.036391 0.0066,0.00331 0.07609,0.039699 0.0099,0.00331 0.07278,0.039699 0.0099,0.00662 0.07609,0.039699 0.0099,0.00331 0.07609,0.039699 0.0066,0.00331 0.07278,0.039699 0.0099,0.00662 0.07609,0.039699 0.0066,0.00662 0.07278,0.043007 0.0066,0.00662 0.07278,0.043007 0.0099,0.00331 0.07278,0.043007 0.0066,0.00331 0.07278,0.043007 0.0066,0.00662 0.07278,0.043007 0.0099,0.00662 0.06947,0.043007 h 0.0066 l 37.482319,22.022935 0.0629,0.03639 0.007,0.0066 0.0629,0.03639 0.01,0.0033 0.0596,0.0397 0.007,0.0066 0.0596,0.03639 0.007,0.0066 0.0596,0.03639 0.007,0.0033 0.0596,0.03639 0.007,0.0033 0.0596,0.03639 0.007,0.0033 0.0596,0.03639 0.01,0.0033 0.0596,0.0397 0.007,0.0033 0.0596,0.0397 0.01,0.0033 0.0596,0.03639 0.007,0.0033 0.0596,0.0397 0.007,0.0066 0.0595,0.0397 0.007,0.0066 0.0562,0.03639 0.01,0.0033 0.0596,0.0397 0.007,0.0033 0.0595,0.0397 0.007,0.0033 0.0562,0.0397 0.007,0.0033 0.0562,0.0397 0.007,0.0033 0.0562,0.0397 0.007,0.0066 0.0562,0.0397 0.007,0.0033 0.0562,0.04301 0.01,0.0066 0.0562,0.0397 0.007,0.0033 0.0562,0.0397 0.007,0.0033 0.0562,0.0397 0.007,0.0066 0.0562,0.0397 0.007,0.0033 0.0562,0.0397 0.007,0.0066 0.0562,0.0397 0.007,0.0066 0.0562,0.04301 0.01,0.0066 0.0529,0.04301 0.01,0.0066 0.0562,0.04301 0.01,0.0033 0.0562,0.04301 0.007,0.0066 0.0562,0.04301 0.007,0.0066 0.0529,0.04301 0.01,0.0066 0.0562,0.04631 0.01,0.0099 0.10586,0.08601 0.0132,0.0099 0.10586,0.08932 0.0132,0.0099 0.10918,0.08932 0.0132,0.0099 0.10917,0.08932 0.0132,0.0099 0.10587,0.08932 0.0132,0.01323 0.10586,0.08932 0.0132,0.0099 0.10255,0.09263 0.0132,0.0099 0.10255,0.09263 0.0132,0.0099 0.10256,0.09594 0.0132,0.0099 0.0992,0.09263 0.0132,0.0099 0.10256,0.09594 0.0132,0.01323 0.0992,0.09594 0.0132,0.01323 0.0992,0.09594 0.0132,0.01323 0.0959,0.09594 0.0132,0.01323 0.0959,0.09925 0.0132,0.01323 0.0959,0.09925 0.01,0.01323 0.0959,0.09925 0.0132,0.01323 0.0926,0.09925 0.0132,0.01323 0.0926,0.09925 0.0132,0.01323 0.0926,0.09925 0.0132,0.01323 0.0926,0.102556 0.0132,0.01323 0.0893,0.105863 0.01,0.01323 0.0926,0.102555 0.0132,0.01323 0.0893,0.105864 0.0132,0.01323 0.0893,0.105864 0.01,0.01323 0.0893,0.105864 0.0132,0.01323 0.086,0.105864 0.01,0.01323 0.086,0.105863 0.0132,0.01323 0.086,0.109172 0.01,0.01323 0.0827,0.109172 0.01,0.01323 0.0827,0.109171 0.01,0.01323 0.0827,0.109172 0.01,0.01654 0.0827,0.112481 0.01,0.01323 0.0827,0.109172 0.01,0.01654 0.0794,0.112481 0.01,0.01323 0.0794,0.112481 0.01,0.01323 0.0794,0.112481 0.01,0.01654 0.0761,0.11248 0.01,0.01654 0.0761,0.115788 0.01,0.01654 0.0728,0.112481 0.01,0.01323 0.0728,0.11248 0.01,0.01323 0.0761,0.115788 0.01,0.01323 0.0728,0.115788 0.01,0.01654 0.0695,0.115789 0.01,0.01654 0.0728,0.115788 0.01,0.01654 0.0695,0.115789 0.01,0.01654 0.0695,0.119096 0.01,0.01323 0.0662,0.119097 0.01,0.01654 0.0662,0.119096 0.01,0.01654 0.0662,0.119096 0.01,0.01654 0.0662,0.119097 0.007,0.01654 0.0662,0.122405 0.007,0.01654 0.0628,0.122405 0.007,0.01654 0.0629,0.122405 0.01,0.01323 0.0596,0.125713 0.007,0.01654 0.0628,0.122405 0.007,0.01654 0.0596,0.122405 0.01,0.01654 0.0562,0.125713 0.007,0.01654 0.0562,0.125713 0.007,0.01654 0.0562,0.125713 0.007,0.01654 0.0562,0.125713 0.007,0.01654 0.0529,0.125713 0.007,0.01654 0.0529,0.125713 0.007,0.01654 0.0496,0.129021 0.007,0.01654 0.0496,0.125713 0.007,0.01654 0.0496,0.129021 0.007,0.01654 0.0496,0.129021 0.007,0.01654 0.0496,0.129021 0.007,0.01654 0.0463,0.129021 0.007,0.01654 0.043,0.129021 0.007,0.01654 0.043,0.129021 0.007,0.01654 0.043,0.129022 0.007,0.01654 0.043,0.132329 0.003,0.01654 0.0397,0.129021 0.007,0.01654 0.0397,0.132329 0.003,0.01654 0.0397,0.132329 0.007,0.01654 0.0397,0.13233 0.007,0.01654 0.0364,0.132329 0.007,0.01654 0.0364,0.132329 0.003,0.01654 0.0331,0.13233 0.007,0.01985 0.0364,0.135638 0.003,0.01654 0.0331,0.135638 0.007,0.01654 0.0298,0.135638 0.007,0.01654 0.0331,0.135638 0.003,0.01985 0.0298,0.135638 0.003,0.01654 0.0298,0.135638 0.003,0.01654 0.0265,0.135638 0.003,0.01654 0.0265,0.135638 0.003,0.01654 0.0265,0.135638 0.003,0.01654 0.0232,0.138946 0.003,0.01654 0.0232,0.135638 0.003,0.01985 0.0232,0.138946 0.003,0.01985 0.0198,0.138946 0.003,0.01985 0.0199,0.135638 v 0.01323 l 0.01,0.07278 v 0.0066 l 0.007,0.06947 v 0.0099 l 0.01,0.06947 v 0.0066 l 0.01,0.06947 v 0.0099 l 0.01,0.06947 0.003,0.0099 0.01,0.06947 v 0.0099 l 0.007,0.06947 0.003,0.0066 0.007,0.06947 0.003,0.0099 0.007,0.06947 v 0.0099 l 0.007,0.06947 0.003,0.0099 0.007,0.06947 0.003,0.0099 0.007,0.06947 v 0.0099 l 0.007,0.06947 v 0.0099 l 0.007,0.06947 v 0.0099 l 0.007,0.06947 v 0.0099 l 0.007,0.06947 v 0.0099 l 0.003,0.06947 v 0.0099 l 0.003,0.07278 v 0.0099 l 0.007,0.07278 v 0.0066 l 0.003,0.06947 v 0.0099 l 0.003,0.06947 v 0.0099 l 0.003,0.06947 v 0.0099 l 0.003,0.06947 v 0.0099 l 0.003,0.07278 v 0.0099 l 0.003,0.06947 v 0.0099 l 0.003,0.06947 v 0.0066 l 0.003,0.06947 v 46.182992 l -0.003,0.07609 v 0.09594 l -0.003,0.07609 v 0.0099 l -0.003,0.07278 v 0.0066 l -0.003,0.07609 v 0.0099 l -0.003,0.07278 v 0.0066 l -0.003,0.07278 v 0.0099 l -0.003,0.07278 -0.003,0.0099 -0.003,0.07278 v 0.0099 l -0.003,0.07278 v 0.0066 l -0.003,0.07609 v 0.0099 l -0.007,0.07609 v 0.0066 l -0.007,0.07609 v 0.0099 l -0.007,0.07278 v 0.0099 l -0.003,0.07278 v 0.0099 l -0.007,0.07278 v 0.0099 l -0.007,0.07278 v 0.0099 l -0.007,0.07278 v 0.0099 l -0.007,0.07278 -0.003,0.0066 -0.007,0.07609 -0.003,0.0099 -0.007,0.07278 v 0.0099 l -0.007,0.07278 -0.003,0.0099 -0.01,0.07278 v 0.0099 l -0.01,0.07278 v 0.0066 l -0.01,0.07278 v 0.0099 l -0.01,0.07278 -0.003,0.0099 -0.01,0.07609 -0.003,0.0099 -0.01,0.07278 -0.003,0.0099 -0.01,0.07278 v 0.0099 l -0.01,0.07278 v 0.0099 l -0.01,0.07278 -0.003,0.0099 -0.01,0.07278 -0.003,0.0099 -0.0132,0.07278 v 0.0066 l -0.01,0.07278 v 0.0066 l -0.0132,0.07278 -0.003,0.0099 -0.01,0.07278 -0.003,0.0099 -0.01,0.07278 v 0.0066 l -0.0132,0.07278 v 0.0066 l -0.0132,0.07278 v 0.0066 l -0.0132,0.07278 v 0.0099 l -0.0132,0.06947 -0.003,0.0099 -0.0132,0.06947 -0.003,0.0099 -0.0132,0.07278 -0.003,0.0099 -0.0165,0.07278 v 0.0066 l -0.0165,0.07278 v 0.0066 l -0.0132,0.06947 v 0.0099 l -0.0166,0.07278 v 0.0066 l -0.0132,0.07278 -0.003,0.0066 -0.0165,0.06947 v 0.0066 l -0.0165,0.06947 v 0.0099 l -0.0165,0.06947 -0.003,0.0099 -0.0165,0.06947 -0.003,0.0099 -0.0165,0.06947 -0.003,0.0066 -0.0165,0.06947 -0.003,0.0066 -0.0165,0.06947 -0.003,0.0099 -0.0199,0.06947 -0.003,0.0099 -0.0165,0.06947 -0.003,0.0099 -0.0199,0.06947 v 0.0099 l -0.0198,0.07278 -0.003,0.0099 -0.0199,0.06947 v 0.0099 l -0.0199,0.06947 -0.003,0.0099 -0.0198,0.06947 -0.003,0.0099 -0.0198,0.07278 -0.003,0.0066 -0.0199,0.06947 -0.003,0.0066 -0.0199,0.06947 -0.003,0.0099 -0.0232,0.06947 -0.003,0.0099 -0.0198,0.06947 -0.003,0.0066 -0.0199,0.06947 -0.003,0.0099 -0.0199,0.06947 -0.003,0.0066 -0.0232,0.06947 -0.003,0.0099 -0.0232,0.06947 -0.003,0.0099 -0.0232,0.06947 -0.003,0.0099 -0.0232,0.06947 -0.003,0.0099 -0.0232,0.06947 -0.003,0.0066 -0.0232,0.06947 -0.003,0.0099 -0.0232,0.06947 -0.003,0.0099 -0.0232,0.06947 -0.003,0.0066 -0.0232,0.06947 -0.003,0.0099 -0.0232,0.06947 -0.003,0.0099 -0.0265,0.06616 -0.003,0.0099 -0.0232,0.06616 -0.003,0.0099 -0.0232,0.06616 -0.003,0.0099 -0.0232,0.06947 -0.003,0.0099 -0.0265,0.06947 -0.003,0.0099 -0.0265,0.06616 -0.003,0.0099 -0.0265,0.06616 -0.003,0.0099 -0.0265,0.06617 -0.003,0.0099 -0.0265,0.06616 -0.003,0.0099 -0.0265,0.06616 -0.003,0.0099 -0.0265,0.06616 -0.003,0.0066 -0.0298,0.06616 -0.003,0.0099 -0.0298,0.06947 -0.003,0.0099 -0.0265,0.06616 -0.003,0.0099 -0.0298,0.06616 -0.003,0.0099 -0.0298,0.06616 -0.003,0.0099 -0.0298,0.06616 -0.003,0.0066 -0.0298,0.06616 -0.003,0.0099 -0.0298,0.06616 -0.003,0.0066 -0.0298,0.06616 -0.003,0.0066 -0.0298,0.06616 -0.003,0.0066 -0.0298,0.06617 -0.003,0.0066 -0.0331,0.06616 -0.003,0.0066 -0.0331,0.06286 -0.003,0.0099 -0.0298,0.06616 -0.003,0.0066 -0.0331,0.06286 -0.003,0.0099 -0.0298,0.06617 -0.003,0.0066 -0.0331,0.06616 -0.003,0.0099 -0.0331,0.06616 -0.003,0.0066 -0.0331,0.06286 -0.003,0.0066 -0.0331,0.06616 -0.003,0.0099 -0.0331,0.06616 -0.003,0.0099 -0.0331,0.06616 -0.007,0.0099 -0.0331,0.06286 -0.003,0.0066 -0.0331,0.06616 -0.003,0.0099 -0.0331,0.06616 -0.003,0.0099 -0.0364,0.06286 -0.007,0.0066 -0.0364,0.06286 -0.003,0.0066 -0.0364,0.06286 -0.003,0.0066 -0.0364,0.06286 -0.003,0.0066 -0.0364,0.06286 -0.003,0.0066 -0.0364,0.06286 -0.003,0.0099 -0.0364,0.06286 -0.003,0.0066 -0.0364,0.06286 -0.003,0.0099 -0.0364,0.06286 -0.007,0.0066 -0.0364,0.06286 -0.007,0.0066 -0.0364,0.06286 -0.003,0.0066 -0.0364,0.06286 -0.003,0.0099 -0.0397,0.06286 -0.003,0.0066 -0.0364,0.05955 -0.003,0.0099 -0.0364,0.05955 -0.007,0.0066 -0.0397,0.06286 -0.003,0.0099 -0.0397,0.05955 -0.007,0.0066 -0.0397,0.05955 -0.003,0.0066 -0.0397,0.06286 -0.007,0.0099 -0.0397,0.05955 -0.007,0.0066 -0.0397,0.05955 -0.003,0.0066 -0.0397,0.06286 -0.003,0.0066 -0.0397,0.05955 -0.007,0.0066 -0.043,0.05955 -0.003,0.0066 -0.0397,0.05955 -0.003,0.0066 -0.043,0.05955 -0.003,0.0066 -0.0397,0.05955 -0.007,0.0066 -0.0397,0.05955 -0.007,0.0066 -0.043,0.05955 -0.007,0.0066 -0.0397,0.05955 -0.003,0.0066 -0.043,0.05955 -0.007,0.0099 -0.0397,0.05955 -0.007,0.0066 -0.043,0.05955 -0.007,0.0066 -0.043,0.05955 -0.007,0.0066 -0.043,0.05955 -0.007,0.0066 -0.043,0.05955 -0.003,0.0066 -0.043,0.05624 -0.007,0.0066 -0.043,0.05624 -0.003,0.0066 -0.0463,0.05624 -0.007,0.0066 -0.043,0.05624 -0.003,0.0066 -0.043,0.05955 -0.007,0.0066 -0.0463,0.05955 -0.007,0.0066 -0.0463,0.05624 -0.007,0.0066 -0.0463,0.05624 -0.003,0.0066 -0.0463,0.05624 -0.007,0.0066 -0.0463,0.05624 -0.007,0.0066 -0.0463,0.05624 -0.007,0.0066 -0.0463,0.05624 -0.007,0.0066 -0.0463,0.05624 -0.003,0.0066 -0.0463,0.05624 -0.007,0.0066 -0.0496,0.05624 -0.007,0.0066 -0.0463,0.05624 -0.007,0.0066 -0.0463,0.05624 -0.007,0.0066 -0.0463,0.05624 -0.007,0.0066 -0.0463,0.05624 -0.007,0.0066 -0.0463,0.05293 -0.007,0.0066 -0.0496,0.05624 -0.007,0.007 -0.0463,0.0562 -0.007,0.007 -0.0496,0.0562 -0.007,0.007 -0.0463,0.0562 -0.007,0.007 -0.0496,0.0529 -0.007,0.007 -0.0496,0.0529 -0.007,0.007 -0.0496,0.0529 -0.007,0.007 -0.0496,0.0529 -0.007,0.007 -0.0496,0.0529 -0.007,0.007 -0.0496,0.0529 -0.007,0.007 -0.0496,0.0529 -0.007,0.007 -0.0496,0.0529 -0.007,0.007 -0.0529,0.0529 -0.007,0.007 -0.0496,0.0529 -0.007,0.007 -0.0496,0.0496 -0.007,0.007 -0.0529,0.0529 -0.01,0.007 -0.0529,0.0529 -0.007,0.007 -0.0529,0.0496 -0.007,0.007 -0.0529,0.0529 -0.007,0.007 -0.0529,0.0496 -0.007,0.007 -0.0529,0.0496 -0.007,0.007 -0.0529,0.0496 -0.007,0.007 -0.0529,0.0496 -0.007,0.007 -0.0529,0.0496 -0.007,0.007 -0.0529,0.0496 -0.007,0.007 -0.0562,0.0496 -0.007,0.003 -0.0529,0.0496 -0.007,0.007 -0.0562,0.0496 -0.007,0.007 -0.0562,0.0496 -0.007,0.003 -0.0562,0.0496 -0.007,0.007 -0.0562,0.0463 -0.01,0.007 -0.0562,0.0463 -0.007,0.007 -0.0562,0.0496 -0.007,0.007 -0.0562,0.0496 -0.007,0.007 -0.0562,0.0496 -0.007,0.007 -0.0562,0.0463 -0.007,0.007 -0.0595,0.0463 -0.007,0.003 -0.0562,0.0463 -0.007,0.007 -0.0562,0.0463 -0.01,0.007 -0.0562,0.0463 -0.007,0.007 -0.0562,0.0463 -0.007,0.007 -0.0562,0.0463 -0.007,0.007 -0.0596,0.0463 -0.007,0.007 -0.0562,0.043 -0.007,0.007 -0.0596,0.0463 -0.007,0.007 -0.0595,0.0463 -0.007,0.007 -0.0595,0.0463 -0.007,0.007 -0.0595,0.0463 -0.007,0.003 -0.0596,0.043 -0.007,0.003 -0.0595,0.043 -0.007,0.003 -0.0596,0.043 -0.01,0.003 -0.0596,0.043 -0.007,0.007 -0.0596,0.043 -0.007,0.007 -0.0596,0.043 -0.007,0.007 -0.0596,0.043 -0.01,0.007 -0.0596,0.043 -0.007,0.003 -0.0628,0.043 -0.01,0.003 -0.0629,0.043 -0.007,0.007 -0.0629,0.043 -0.007,0.007 -0.0629,0.0397 -0.007,0.007 -0.0628,0.043 -0.007,0.007 -0.0596,0.043 -0.01,0.007 -0.0629,0.0397 -0.007,0.003 -0.0629,0.0397 -0.01,0.003 -0.0628,0.0397 -0.007,0.007 -0.0629,0.0397 -0.007,0.007 -0.0629,0.0397 -0.007,0.003 -0.0629,0.0397 -0.01,0.003 -0.0629,0.0397 -0.007,0.007 -0.0629,0.0397 -0.01,0.003 -0.0629,0.0397 -0.01,0.007 -0.0629,0.0397 -0.01,0.007 -0.0662,0.0397 -0.007,0.007 -0.0629,0.0364 -0.01,0.003 -0.0629,0.0364 -0.007,0.007 -0.0662,0.0397 -0.01,0.007 -0.0662,0.0364 -0.007,0.007 -0.0629,0.0364 -0.01,0.003 -0.0662,0.0364 -0.01,0.003 -0.0662,0.0364 -0.007,0.003 -0.0629,0.0364 -0.003,0.003 -38.352385,21.37121 h -0.0033 l -0.05955,0.0364 -0.0099,0.003 -0.06286,0.0364 -0.0099,0.007 -0.06286,0.0331 -0.0099,0.003 -0.06286,0.0331 -0.0066,0.003 -0.06286,0.0331 -0.0099,0.003 -0.06286,0.0331 -0.0099,0.003 -0.06286,0.0331 -0.0099,0.003 -0.06286,0.0331 -0.0066,0.003 -0.06286,0.0331 -0.0066,0.003 -0.06286,0.0298 -0.0066,0.003 -0.06616,0.0331 -0.0066,0.007 -0.06286,0.0331 -0.0066,0.003 -0.06286,0.0298 -0.0066,0.003 -0.06286,0.0298 -0.0066,0.003 -0.06286,0.0331 -0.0066,0.003 -0.06616,0.0298 -0.0066,0.003 -0.06286,0.0298 -0.0066,0.003 -0.06616,0.0298 -0.0066,0.003 -0.06286,0.0298 -0.0066,0.003 -0.06286,0.0298 -0.0099,0.007 -0.06616,0.0298 -0.0066,0.003 -0.06616,0.0265 -0.0066,0.003 -0.06616,0.0298 -0.0066,0.007 -0.06616,0.0298 -0.0099,0.003 -0.06286,0.0265 -0.0066,0.003 -0.06616,0.0298 -0.0066,0.003 -0.06616,0.0265 -0.0066,0.003 -0.06616,0.0265 -0.0066,0.003 -0.06616,0.0265 -0.0099,0.003 -0.06616,0.0265 -0.0099,0.003 -0.06617,0.0265 -0.0099,0.003 -0.06286,0.0265 -0.0066,0.003 -0.06616,0.0232 -0.0066,0.003 -0.06617,0.0265 -0.0099,0.003 -0.06616,0.0265 -0.0099,0.003 -0.06616,0.0265 -0.0099,0.003 -0.06617,0.0232 -0.0099,0.003 -0.06616,0.0265 -0.0099,0.003 -0.06616,0.0232 -0.0066,0.003 -0.06616,0.0232 -0.0099,0.003 -0.06616,0.0232 -0.0099,0.003 -0.06616,0.0232 -0.0099,0.003 -0.06616,0.0232 -0.0066,0.003 -0.06617,0.0232 -0.06616,0.0232 -0.0099,0.003 -0.06947,0.0199 -0.0099,0.003 -0.06617,0.0199 -0.0066,0.003 -0.06616,0.0232 -0.0066,0.003 -0.06947,0.0198 -0.0099,0.003 -0.06616,0.0199 -0.0099,0.003 -0.06616,0.0199 -0.0099,0.003 -0.06947,0.0232 -0.01323,0.003 -0.13233,0.0397 -0.01654,0.007 -0.135637,0.0397 -0.01654,0.003 -0.135637,0.0397 -0.01654,0.003 -0.135637,0.0364 -0.01654,0.007 -0.135638,0.0364 -0.01654,0.003 -0.135638,0.0364 -0.01985,0.003 -0.135637,0.0331 -0.01654,0.003 -0.135638,0.0331 -0.01985,0.003 -0.135637,0.0331 -0.01654,0.003 -0.135637,0.0298 -0.01654,0.003 -0.138946,0.0298 -0.01985,0.003 -0.138946,0.0298 -0.01654,0.003 -0.138946,0.0265 -0.01654,0.003 -0.135638,0.0231 -0.01654,0.003 -0.135638,0.0265 -0.01654,0.003 -0.138946,0.0232 -0.01654,0.003 -0.138946,0.0232 -0.01654,0.003 -0.138946,0.0199 -0.01654,0.003 -0.138946,0.0198 -0.01654,0.003 -0.138946,0.0198 -0.01654,0.003 -0.138946,0.0199 -0.01985,0.003 -0.138946,0.0165 -0.01654,0.003 -0.138946,0.0165 -0.01654,0.003 -0.138946,0.0165 -0.138946,0.0132 h -0.01654 l -0.138945,0.01 -0.01654,0.003 -0.138946,0.01 h -0.01654 l -0.138946,0.01 h -0.01654 l -0.138946,0.01 -0.01985,0.003 -0.138946,0.01 h -0.01654 l -0.138946,0.007 h -0.01654 l -0.138946,0.007 h -0.01985 l -0.138946,0.003 h -0.01654 l -0.138946,0.003 h -0.01654 L 63.236446,128 h -0.489619 l -0.138946,-0.003 -0.138946,-0.003 h -0.01985 l -0.138946,-0.003 h -0.003 l -0.138946,-0.007 -0.01654,-0.003 -0.138946,-0.007 h -0.01654 l -0.138946,-0.007 -0.01654,-0.003 -0.138946,-0.007 h -0.01654 l -0.138946,-0.01 -0.01654,-0.003 -0.138946,-0.0132 -0.01985,-0.003 -0.138946,-0.0132 -0.01985,-0.003 -0.138946,-0.0132 -0.01654,-0.003 -0.138946,-0.0132 h -0.01654 l -0.138946,-0.0132 -0.01654,-0.003 -0.138946,-0.0165 h -0.01985 l -0.138945,-0.0165 -0.01985,-0.003 -0.138946,-0.0198 -0.01654,-0.003 -0.138946,-0.0199 -0.01654,-0.003 -0.138946,-0.0199 -0.01654,-0.003 -0.138946,-0.0198 -0.01654,-0.003 -0.135637,-0.0232 h -0.0099 l -0.138946,-0.0265 -0.01786,-0.003 -0.135638,-0.0265 -0.01654,-0.003 -0.135638,-0.0265 -0.01654,-0.003 -0.135638,-0.0265 -0.01985,-0.003 -0.137623,-0.0265 -0.01654,-0.003 -0.135638,-0.0298 -0.01985,-0.007 -0.135638,-0.0298 -0.01654,-0.003 -0.135638,-0.0331 -0.01853,-0.007 -0.135638,-0.0331 -0.01654,-0.007 -0.135638,-0.0364 -0.01654,-0.003 -0.135638,-0.0364 -0.01654,-0.007 -0.135638,-0.0364 -0.01654,-0.007 -0.135638,-0.0364 -0.01654,-0.007 -0.135637,-0.0397 -0.01985,-0.007 -0.135638,-0.0397 -0.01654,-0.007 -0.135638,-0.0397 -0.01654,-0.007 -0.135637,-0.0397 -0.01654,-0.003 -0.131667,-0.043 -0.01323,-0.003 -0.06947,-0.0232 h -0.0089 l -0.06616,-0.0198 -0.0099,-0.003 -0.06617,-0.0232 -0.0099,-0.003 -0.06616,-0.0232 -0.0099,-0.003 -0.06616,-0.0232 -0.0099,-0.003 -0.06617,-0.0232 -0.0099,-0.003 -0.06616,-0.0232 -0.0066,-0.003 -0.06617,-0.0232 -0.0066,-0.003 -0.06617,-0.0232 -0.0066,-0.003 -0.06616,-0.0265 -0.0099,-0.003 -0.06617,-0.0265 -0.0099,-0.003 -0.06616,-0.0265 -0.0066,-0.003 -0.06616,-0.0265 -0.0099,-0.003 -0.06616,-0.0265 -0.0066,-0.003 -0.06616,-0.0265 -0.0099,-0.003 -0.06616,-0.0265 -0.0066,-0.003 -0.06616,-0.0265 -0.0066,-0.003 -0.06617,-0.0265 -0.0099,-0.003 -0.06616,-0.0265 -0.0099,-0.003 -0.06616,-0.0265 -0.0099,-0.003 -0.06616,-0.0265 -0.0099,-0.003 -0.06617,-0.0265 -0.0066,-0.003 -0.06617,-0.0298 -0.0099,-0.003 -0.06286,-0.0298 -0.0066,-0.003 -0.06616,-0.0298 -0.0066,-0.003 -0.06616,-0.0298 -0.0066,-0.003 -0.06617,-0.0265 -0.0099,-0.003 -0.06286,-0.0298 -0.0099,-0.003 -0.06617,-0.0298 -0.0099,-0.003 -0.06286,-0.0298 -0.0066,-0.007 -0.06286,-0.0298 -0.0066,-0.003 -0.06286,-0.0298 -0.0066,-0.003 -0.06616,-0.0298 -0.0066,-0.007 -0.06616,-0.0331 -0.0066,-0.007 -0.06286,-0.0298 -0.0099,-0.003 -0.06616,-0.0298 -0.0066,-0.007 -0.06286,-0.0331 -0.0099,-0.003 -0.06616,-0.0331 -0.0066,-0.003 -0.06286,-0.0331 -0.0099,-0.003 -0.06286,-0.0331 -0.0066,-0.003 -0.06286,-0.0331 -0.0099,-0.007 -0.06286,-0.0331 -0.0066,-0.003 -0.06286,-0.0331 -0.0066,-0.003 -0.06286,-0.0331 -0.0099,-0.007 -0.06286,-0.0331 -0.0066,-0.003 -0.06286,-0.0364 -0.0099,-0.007 -0.06286,-0.0331 -0.0099,-0.003 -0.06286,-0.0331 -0.0099,-0.003 -0.06286,-0.0331 -0.0099,-0.003 -0.06286,-0.0364 -0.0099,-0.003 -0.05955,-0.0364 -0.0099,-0.003 -0.05955,-0.0364 -0.0033,-0.003 -34.670326,-20.23649 -0.0033,-0.003 -0.07278,-0.043 -0.0066,-0.003 -0.07278,-0.043 -0.0099,-0.003 -0.07609,-0.043 -0.0099,-0.003 -0.07278,-0.0463 -0.0066,-0.003 -0.07278,-0.0463 -0.0066,-0.007 -0.07278,-0.0463 -0.0066,-0.007 -0.07278,-0.0463 -0.0099,-0.003 -0.07278,-0.043 -0.0099,-0.007 -0.07278,-0.0463 -0.0066,-0.007 -0.07278,-0.0463 h 0.01687 l -0.07278,-0.0463 -0.0099,-0.007 -0.07278,-0.0463 -0.0066,-0.007 -0.07278,-0.0463 -0.0093,-0.007 -0.07278,-0.0496 -0.0099,-0.007 -0.07278,-0.0496 -0.0066,-0.007 -0.07278,-0.0463 -0.0066,-0.007 -0.07278,-0.0496 -0.0066,-0.007 -0.07278,-0.0496 -0.0066,-0.007 -0.06947,-0.0496 -0.0099,-0.007 -0.07113,-0.0496 -0.0066,-0.007 -0.06947,-0.0496 -0.0083,-0.007 -0.06947,-0.0496 -0.0089,-0.007 -0.06947,-0.0496 -0.0066,-0.003 -0.06947,-0.0496 -0.0066,-0.007 -0.06848,-0.0496 -0.0066,-0.007 -0.06815,-0.0496 -0.0099,-0.003 -0.06947,-0.0496 -0.0066,-0.007 -0.06947,-0.0529 -0.0066,-0.007 -0.06947,-0.0496 -0.0086,-0.007 -0.06947,-0.0529 -0.0086,-0.007 -0.06617,-0.0529 -0.0066,-0.007 -0.06617,-0.0529 -0.0066,-0.003 -0.06616,-0.0529 -0.0066,-0.007 -0.06616,-0.0529 -0.0066,-0.007 -0.06617,-0.0529 -0.0066,-0.007 -0.06616,-0.0529 -0.0066,-0.007 -0.06616,-0.0529 -0.0066,-0.007 -0.06616,-0.0529 -0.0066,-0.007 -0.06616,-0.0562 -0.0066,-0.003 -0.06617,-0.0529 -0.0066,-0.007 -0.06418,-0.0529 -0.0066,-0.007 -0.06616,-0.0562 -0.0066,-0.007 -0.06616,-0.0529 -0.0066,-0.007 -0.06616,-0.0562 -0.0066,-0.003 -0.06484,-0.0529 -0.0066,-0.007 -0.06286,-0.0529 -0.0066,-0.007 -0.06286,-0.0562 -0.0066,-0.007 -0.06286,-0.0562 -0.0066,-0.007 -0.06286,-0.0562 -0.0066,-0.007 -0.06286,-0.0562 -0.0066,-0.007 -0.06286,-0.0562 -0.0066,-0.007 -0.06286,-0.0595 -0.0066,-0.003 -0.06286,-0.0562 -0.0099,-0.007 -0.0612,-0.0596 -0.0066,-0.007 -0.06286,-0.0562 -0.0066,-0.007 -0.06153,-0.0596 -0.0066,-0.007 -0.05955,-0.0596 -0.0066,-0.007 -0.05955,-0.0596 -0.0066,-0.007 -0.06286,-0.0596 -0.0066,-0.007 -0.06286,-0.0596 -0.0066,-0.003 -0.05955,-0.0595 -0.0066,-0.007 -0.05955,-0.0596 -0.0066,-0.007 -0.05955,-0.0595 -0.0066,-0.007 -0.05955,-0.0596 -0.0066,-0.007 -0.05955,-0.0596 -0.0066,-0.007 -0.05955,-0.0595 -0.0066,-0.007 -0.05624,-0.0596 -0.0066,-0.007 -0.05955,-0.0596 -0.0066,-0.007 -0.05955,-0.0629 -0.0066,-0.007 -0.05624,-0.0628 -0.0066,-0.007 -0.05624,-0.0629 -0.0066,-0.007 -0.05955,-0.0629 -0.0066,-0.007 -0.05624,-0.0628 -0.0066,-0.007 -0.05624,-0.0628 -0.0066,-0.007 -0.05624,-0.0629 -0.0066,-0.007 -0.05624,-0.0629 -0.0066,-0.007 -0.05624,-0.0628 -0.0033,-0.007 -0.05293,-0.0629 -0.0066,-0.007 -0.05624,-0.0629 -0.0066,-0.007 -0.05955,-0.0662 -0.0066,-0.007 -0.05624,-0.0628 -0.0066,-0.007 -0.05624,-0.0662 -0.0066,-0.007 -0.05293,-0.0629 -0.0033,-0.007 -0.05293,-0.06286 -0.0066,-0.0066 -0.05293,-0.06616 -0.0066,-0.0066 -0.05624,-0.06616 -0.0066,-0.0066 -0.05293,-0.06286 -0.0066,-0.0066 -0.05624,-0.06286 -0.0066,-0.0066 -0.05293,-0.06286 -0.0066,-0.0066 -0.05293,-0.06617 -0.0066,-0.0066 -0.05293,-0.06616 -0.0066,-0.0066 -0.05293,-0.06616 -0.0066,-0.0066 -0.05293,-0.06616 -0.0066,-0.0066 -0.05293,-0.06616 -0.0033,-0.0066 -0.04962,-0.06617 -0.0066,-0.0066 -0.04962,-0.06616 -0.0033,-0.0066 -0.04962,-0.06616 -0.0066,-0.0066 -0.04962,-0.06947 -0.0066,-0.0066 -0.04962,-0.06616 -0.0066,-0.0066 -0.04962,-0.06616 -0.0033,-0.0066 -0.04962,-0.06947 -0.0033,-0.0066 -0.04962,-0.06947 -0.0033,-0.0066 -0.04962,-0.06616 -0.0033,-0.0066 -0.04962,-0.06616 -0.0066,-0.0066 -0.04962,-0.06947 -0.0066,-0.0066 -0.04962,-0.06947 -0.0066,-0.0099 -0.04631,-0.06947 -0.0066,-0.0066 -0.04631,-0.06947 -0.0066,-0.0066 -0.04631,-0.06947 -0.0066,-0.0066 -0.04631,-0.06947 -0.0033,-0.0066 -0.04631,-0.06947 -0.0066,-0.0099 -0.04631,-0.06947 -0.0066,-0.0066 -0.04631,-0.06947 -0.0066,-0.0066 -0.04631,-0.06947 -0.0066,-0.0066 -0.04631,-0.06947 -0.0066,-0.0066 -0.04301,-0.06947 -0.0033,-0.0066 -0.04301,-0.06947 -0.0066,-0.0099 -0.04631,-0.06947 -0.0066,-0.0099 -0.04631,-0.06947 -0.0033,-0.0066 -0.04631,-0.07278 -0.0033,-0.0099 -0.04301,-0.06947 -0.0066,-0.0066 -0.04301,-0.06947 -0.0066,-0.0066 -0.04301,-0.07278 -0.0066,-0.0099 -0.04301,-0.06947 -0.0033,-0.0066 -0.04301,-0.07278 -0.0033,-0.0066 -0.04301,-0.06947 -0.0066,-0.0099 -0.04301,-0.07278 -0.0066,-0.0099 -0.04301,-0.07278 -0.0066,-0.0099 -0.0397,-0.07278 -0.0066,-0.0066 L 9.968289,96.48641 9.964979,96.47981 9.92528,96.40703 9.92197,96.40043 9.882271,96.32765 9.878961,96.31775 9.839262,96.24497 9.832642,96.23507 9.792943,96.16229 9.789633,96.15239 9.749934,96.0763 9.746624,96.0697 9.706925,95.99692 9.703615,95.98702 9.663916,95.91424 9.660606,95.90434 9.620907,95.83156 9.617597,95.82166 9.581206,95.74557 9.577896,95.73897 9.538197,95.66288 9.534887,95.65298 9.495188,95.57689 9.488568,95.57029 9.452177,95.4942 9.448867,95.4876 9.412476,95.41482 9.409166,95.40492 9.372775,95.32883 v 0.0033 L 9.336384,95.25604 9.329764,95.24614 9.293373,95.17005 9.290063,95.16015 9.253672,95.08737 9.250362,95.07747 9.213971,95.00138 9.210661,94.99478 9.17427,94.91869 9.17096,94.91209 9.137878,94.836 9.134568,94.8294 9.098177,94.75331 9.094867,94.74671 9.058476,94.67062 9.055166,94.66402 9.018775,94.58793 9.015465,94.57803 8.982383,94.50194 8.979073,94.49534 8.942682,94.41925 8.939372,94.40935 8.902981,94.33326 8.899671,94.32666 8.866589,94.25057 8.863279,94.24397 8.830197,94.16788 8.826887,94.15798 8.793805,94.08189 8.790495,94.07529 8.760721,93.9992 8.757411,93.9926 8.724329,93.91651 l -0.00331,-0.0099 -0.029774,-0.0794 -0.00331,-0.0066 -0.033082,-0.07609 -0.00331,-0.0099 -0.029774,-0.07278 -0.00331,-0.0099 -0.033082,-0.0794 -0.00331,-0.0066 -0.029774,-0.0794 -0.00331,-0.0099 -0.029774,-0.0794 -0.00331,-0.0066 -0.029774,-0.0794 -0.00331,-0.0099 -0.029774,-0.0794 -0.00331,-0.0066 -0.029774,-0.0794 -0.00331,-0.0066 -0.026466,-0.0794 -0.00331,-0.0099 -0.029774,-0.0794 -0.00331,-0.0066 -0.026466,-0.0794 -0.00331,-0.0099 -0.026466,-0.0794 -0.00331,-0.0099 -0.029774,-0.0794 -0.00331,-0.0099 -0.026466,-0.0794 -0.00331,-0.0066 -0.026466,-0.0794 -0.00331,-0.0066 -0.026466,-0.0794 -0.00331,-0.0099 -0.026466,-0.0794 -0.00331,-0.0099 -0.026466,-0.0794 -0.00331,-0.0099 -0.026466,-0.0794 -0.00331,-0.0099 -0.026466,-0.0794 -0.00298,-0.0096 -0.023158,-0.0794 -0.00331,-0.0066 -0.026466,-0.08271 -0.00331,-0.0099 -0.023158,-0.08271 -0.00331,-0.0099 -0.023158,-0.0794 -0.00331,-0.0099 -0.023158,-0.0794 -0.00331,-0.0099 L 7.894243,91.53541 7.890933,91.52551 7.867775,91.4428 7.864465,91.4362 7.841307,91.35349 7.837997,91.35019 7.814839,91.26748 7.811529,91.26088 7.79168,91.18148 7.78837,91.17488 7.768521,91.09548 v -0.0066 L 7.745363,91.00617 v -0.0099 l -0.019849,-0.0794 -0.00331,-0.0099 -0.019849,-0.0794 -0.00331,-0.0099 -0.019849,-0.08271 h 0.00331 L 7.662657,90.65225 7.659347,90.64565 7.639498,90.56295 7.636188,90.55635 7.616339,90.47364 7.613029,90.46704 7.59318,90.38433 7.59649,90.38103 7.576641,90.29832 7.573331,90.28842 7.553482,90.20571 7.550172,90.19581 7.533631,90.1131 7.530321,90.1032 7.510472,90.02049 7.507162,90.01389 7.490621,89.93118 7.487311,89.92128 7.47077,89.83857 7.46746,89.82867 7.450919,89.74596 7.434378,89.66325 v -0.0099 L 7.417837,89.56734 v -0.0099 l -0.016541,-0.08271 -0.00331,-0.0099 -0.019849,-0.0794 v -0.0099 L 7.361596,89.28621 7.358286,89.27631 7.341745,89.1903 7.338435,89.1804 7.325202,89.09769 7.321892,89.08779 7.308659,89.00508 v -0.0099 L 7.295426,88.91247 v -0.0099 L 7.282193,88.81986 7.278883,88.80996 7.26565,88.72725 v 0.0033 L 7.252417,88.64784 v -0.0066 L 7.239184,88.55853 v -0.0099 L 7.225951,88.46592 v -0.0099 L 7.212718,88.37331 v -0.0066 L 7.202798,88.2807 v -0.0099 l -0.00992,-0.08271 v -0.0066 l -0.013233,-0.08601 -0.00331,-0.0099 -0.00992,-0.08271 v -0.0099 l -0.00992,-0.08601 -0.00331,-0.0099 -0.00992,-0.08601 v -0.0099 l -0.00993,-0.08601 -0.00331,-0.0099 -0.00992,-0.08602 v -0.0099 l -0.00992,-0.08601 -0.00331,-0.0066 -0.00992,-0.08601 -0.00662,-0.08601 v -0.0099 l -0.00992,-0.08601 -0.00331,-0.0099 -0.00992,-0.08601 v -0.0099 l -0.00662,-0.08601 -0.00331,-0.0099 -0.00662,-0.08601 v -0.0099 l -0.00662,-0.08601 v -0.0099 l -0.00662,-0.08602 -0.00662,-0.08601 v -0.0099 l -0.00662,-0.08602 v -0.0099 l -0.00662,-0.08602 v -0.106856 l -0.00331,-0.08601 v -0.0099 l -0.00331,-0.08602 v -0.0099 l -0.00331,-0.08601 -0.00331,-0.0099 -0.00331,-0.08601 v -0.09263 l -0.00331,-0.08601 v -0.0099 l -0.00429,-0.079 V 43.86094 l 0.00331,-0.08271 v -0.105863 l 0.00331,-0.08601 v -0.304358 l 0.00331,-0.08601 v -0.0066 l 0.00331,-0.08601 v -0.0099 l 0.00331,-0.08601 v -0.0099 l 0.00331,-0.08601 v -0.0066 l 0.00331,-0.08601 v -0.0099 l 0.00331,-0.08601 v -0.0099 l 0.00662,-0.08932 v -0.0099 l 0.00662,-0.08601 v -0.0066 l 0.00331,-0.08601 v -0.0099 l 0.00662,-0.08601 v -0.0099 l 0.00331,-0.08601 v -0.0099 l 0.00331,-0.08602 v -0.0099 l 0.00662,-0.08601 v -0.0099 l 0.00662,-0.08601 v -0.0099 l 0.00992,-0.08601 v -0.0099 l 0.00662,-0.08601 0.00331,-0.0066 0.00662,-0.08601 v -0.0066 l 0.00992,-0.08601 v -0.0066 l 0.00992,-0.08601 0.00331,-0.0099 0.00992,-0.08601 v -0.0099 l 0.00992,-0.08601 v -0.0066 l 0.00992,-0.08601 v -0.0066 l 0.00992,-0.08601 0.00331,-0.0099 0.00992,-0.08601 v -0.0099 l 0.00992,-0.08271 v -0.0099 l 0.00992,-0.08601 v -0.0099 l 0.00992,-0.08601 0.00331,-0.0099 0.00992,-0.08271 v -0.0099 l 0.013233,-0.08601 v -0.0099 l 0.00992,-0.08601 0.00331,-0.0099 0.00992,-0.08271 0.00331,-0.0099 0.013233,-0.08601 0.00331,-0.0066 0.013233,-0.08601 v -0.0066 l 0.013233,-0.08602 v -0.0066 l 0.013233,-0.08271 0.00331,-0.0099 0.013233,-0.08271 v -0.0099 l 0.023158,-0.08601 0.00331,-0.0099 0.013233,-0.08271 v -0.0099 l 0.016541,-0.08271 v -0.0066 l 0.016541,-0.08271 v -0.0066 l 0.016541,-0.08601 0.00331,-0.0066 0.016541,-0.08271 0.00331,-0.0066 0.016541,-0.08271 0.00331,-0.0099 0.016541,-0.08271 0.00331,-0.0099 0.016541,-0.08271 v -0.0099 l 0.016541,-0.08271 v -0.0066 l 0.016541,-0.08271 0.00331,-0.0066 0.016541,-0.08271 0.00331,-0.0066 0.019849,-0.08271 v -0.0099 l 0.019849,-0.0827 0.00331,-0.0099 0.016541,-0.08271 0.00331,-0.0099 0.019849,-0.08271 v -0.0099 l 0.019849,-0.08271 0.00331,-0.0099 0.019849,-0.08271 v -0.0099 l 0.019849,-0.08271 0.00331,-0.0066 0.019849,-0.08271 v -0.0066 l 0.019849,-0.0827 0.00331,-0.0099 0.023158,-0.08271 v -0.0066 l 0.023158,-0.08271 v -0.0066 l 0.023158,-0.08271 0.00331,-0.0099 0.023158,-0.08271 v -0.0099 l 0.023158,-0.08271 0.00331,-0.0099 0.023158,-0.0794 0.00331,-0.0066 0.023158,-0.08271 0.00331,-0.0083 0.023158,-0.08271 0.00331,-0.0099 0.023158,-0.08072 0.00331,-0.0066 0.026466,-0.08271 0.00331,-0.0066 0.023158,-0.0794 0.00331,-0.0066 0.023158,-0.08039 0.00331,-0.0066 0.023158,-0.08204 0.00331,-0.0099 0.026466,-0.08072 0.00331,-0.0099 0.026466,-0.0794 v -0.0066 l 0.026466,-0.0794 v -0.0099 l 0.026466,-0.0794 0.00331,-0.0066 0.026466,-0.0794 0.00331,-0.0099 0.026466,-0.0794 0.00331,-0.0099 0.026466,-0.0794 0.00331,-0.0099 0.026466,-0.0794 0.00331,-0.0066 0.029774,-0.0794 0.00331,-0.0066 0.026466,-0.0794 0.00331,-0.0083 0.026466,-0.0794 0.00331,-0.0066 0.029774,-0.0794 0.00331,-0.0066 0.029774,-0.0794 v -0.0066 l 0.029774,-0.0794 0.00331,-0.0066 0.029774,-0.0794 0.00331,-0.0099 0.029774,-0.0794 0.00331,-0.0066 0.029774,-0.0794 0.00331,-0.0099 0.033082,-0.07609 0.00331,-0.0066 0.033082,-0.0794 0.00331,-0.0066 0.033082,-0.0794 0.00331,-0.0099 0.033082,-0.0794 0.00331,-0.0099 0.033082,-0.0794 0.00331,-0.0099 0.033082,-0.0794 0.00331,-0.0099 0.033082,-0.0794 0.00331,-0.0099 0.033082,-0.0794 0.00331,-0.0083 0.033082,-0.07609 0.00331,-0.0099 0.033082,-0.07609 0.00331,-0.0099 0.033082,-0.0794 0.00331,-0.0066 0.036391,-0.0794 0.00331,-0.0066 0.036391,-0.07609 0.00331,-0.0066 0.033082,-0.07609 0.00331,-0.0099 0.036391,-0.07609 0.00331,-0.0066 0.036391,-0.07609 0.00331,-0.0066 0.036391,-0.07609 0.00331,-0.0066 0.036391,-0.07609 0.00331,-0.0099 0.036391,-0.07609 0.00331,-0.0066 0.036391,-0.07609 0.00331,-0.0099 0.036391,-0.07609 0.00331,-0.0066 0.036391,-0.07609 0.00331,-0.0066 0.036391,-0.07609 0.00331,-0.0066 0.036391,-0.07609 0.00331,-0.0066 0.039699,-0.07278 0.00331,-0.0066 0.039699,-0.07609 0.00662,-0.0099 0.039699,-0.07609 0.00331,-0.0066 0.039699,-0.07609 0.00331,-0.0099 0.039699,-0.07278 0.00331,-0.0066 0.039699,-0.07278 0.00331,-0.0066 0.039699,-0.07278 0.00331,-0.0099 0.039699,-0.07278 0.00662,-0.0066 0.039699,-0.07278 0.00331,-0.0099 0.039699,-0.07278 0.00662,-0.0066 0.039699,-0.07278 0.00331,-0.0066 0.039699,-0.07278 0.0066,-0.0099 0.04301,-0.07278 0.0033,-0.0066 0.0397,-0.07278 0.0033,-0.0066 0.04301,-0.07278 0.0033,-0.0066 0.04301,-0.07278 0.0033,-0.0066 0.04301,-0.07278 0.0066,-0.0066 0.04301,-0.07278 0.0033,-0.0066 0.04301,-0.07278 0.0066,-0.0066 0.04301,-0.07278 0.0033,-0.0066 0.04301,-0.07278 0.0066,-0.0066 0.04301,-0.07278 0.0033,-0.0066 0.04631,-0.07278 0.0066,-0.0099 0.04631,-0.07278 0.0033,-0.0066 0.04301,-0.06947 0.0066,-0.0066 0.04631,-0.06947 0.0066,-0.0066 0.04301,-0.07278 0.0033,-0.0066 0.04631,-0.06947 0.0033,-0.0066 0.04632,-0.06947 0.0066,-0.0066 0.04631,-0.07278 0.0066,-0.0066 0.04631,-0.06947 0.0033,-0.0099 0.04631,-0.06947 0.0033,-0.0066 0.04631,-0.06947 0.0033,-0.0066 0.04962,-0.06947 0.0066,-0.0066 0.04631,-0.06947 0.0066,-0.0066 0.04962,-0.06947 0.0033,-0.0066 0.04962,-0.06947 0.0033,-0.0066 0.04962,-0.06947 0.0033,-0.0066 0.04962,-0.06947 0.0066,-0.0066 0.04962,-0.06947 0.0033,-0.0066 0.04962,-0.06947 0.0066,-0.0066 0.04962,-0.06617 0.0033,-0.0066 0.04962,-0.06947 0.0066,-0.0066 0.04962,-0.06617 0.0066,-0.0066 0.04962,-0.06617 0.0066,-0.0066 0.04962,-0.06616 0.0066,-0.0066 0.04962,-0.06616 0.0033,-0.0066 0.04962,-0.06616 0.0066,-0.0066 0.05293,-0.06617 0.0066,-0.0066 0.05293,-0.06617 0.0066,-0.0066 0.05293,-0.06616 0.0066,-0.0066 0.05293,-0.06616 0.0066,-0.0066 0.05293,-0.06616 0.0066,-0.0099 0.05293,-0.06616 0.0033,-0.0066 0.05293,-0.06617 0.0066,-0.0066 0.05293,-0.06616 0.0066,-0.0066 0.05293,-0.06286 0.0066,-0.0066 0.05293,-0.06616 0.0066,-0.0066 0.05293,-0.06617 0.0066,-0.0066 0.05624,-0.06286 0.0066,-0.0066 0.05293,-0.06616 0.0066,-0.0066 0.05293,-0.06286 0.0066,-0.0066 0.05293,-0.06617 0.0066,-0.0066 0.05624,-0.06616 0.0033,-0.0066 0.05624,-0.06286 0.0066,-0.0066 0.05624,-0.06286 0.0066,-0.0066 0.05624,-0.06286 0.0066,-0.0066 0.05624,-0.06286 0.0033,-0.0066 0.05624,-0.06286 0.0066,-0.0066 0.05624,-0.06286 0.0066,-0.0066 0.05624,-0.06286 0.0033,-0.0066 0.05624,-0.06286 0.0066,-0.0066 0.05955,-0.06286 0.0033,-0.0066 0.05955,-0.06286 0.0066,-0.0066 0.06286,-0.05955 0.0066,-0.0066 0.05955,-0.06286 0.0066,-0.0066 0.05955,-0.06286 0.0066,-0.0066 0.05955,-0.05955 0.0066,-0.0066 0.05955,-0.05955 0.0066,-0.0066 0.05955,-0.05955 0.0066,-0.0066 0.06286,-0.05955 0.0066,-0.0066 0.05955,-0.05955 0.0066,-0.0066 0.05955,-0.05955 0.0066,-0.0066 0.05955,-0.05955 0.0066,-0.0066 0.05955,-0.05955 0.0066,-0.0066 0.05955,-0.05955 0.0066,-0.0066 0.05955,-0.05955 0.0066,-0.0066 0.05955,-0.05955 0.0066,-0.0066 0.06286,-0.05624 0.0066,-0.0066 0.06286,-0.05624 0.0066,-0.0066 0.06286,-0.05955 0.0066,-0.0066 0.06286,-0.05955 0.0066,-0.0033 0.06286,-0.05624 0.0066,-0.0033 0.06286,-0.05624 0.0066,-0.0066 0.06286,-0.05624 0.0066,-0.0066 0.06286,-0.05624 0.0066,-0.0066 0.06286,-0.05624 0.0066,-0.0033 0.06616,-0.05624 0.0066,-0.0066 0.06616,-0.05624 0.0066,-0.0066 0.06617,-0.05624 0.0066,-0.0066 0.06616,-0.05293 0.0066,-0.0066 0.06616,-0.05293 0.0066,-0.0066 0.06286,-0.05293 0.0066,-0.0066 0.06617,-0.05293 0.0066,-0.0066 0.06616,-0.05293 0.0066,-0.0033 0.06616,-0.05293 0.0066,-0.0066 0.06616,-0.05293 0.0066,-0.0066 0.06616,-0.05293 0.0066,-0.0066 0.06947,-0.05293 0.0066,-0.0066 0.06616,-0.05293 0.0066,-0.0066 0.06947,-0.05293 0.0066,-0.0066 0.06947,-0.05293 0.0066,-0.0066 0.06616,-0.05293 0.0066,-0.0033 0.06947,-0.05293 0.0066,-0.0066 0.06616,-0.05293 0.0066,-0.0066 0.06947,-0.04962 0.0066,-0.0066 0.06947,-0.05293 0.0066,-0.0066 0.06947,-0.04962 0.0066,-0.0033 0.06947,-0.04962 0.0099,-0.0066 0.06947,-0.04962 0.0066,-0.0033 0.06947,-0.04962 0.0066,-0.0066 0.06947,-0.05293 0.0066,-0.0033 0.07278,-0.04962 0.0066,-0.0066 0.06947,-0.04962 0.0099,-0.0033 0.06947,-0.04962 0.0066,-0.0033 0.06947,-0.04962 0.0066,-0.0033 0.07278,-0.04962 0.0066,-0.0066 0.06947,-0.04962 0.0066,-0.0033 0.07278,-0.04632 0.0066,-0.0033 0.06947,-0.04962 0.0099,-0.0066 0.07278,-0.04631 0.0066,-0.0066 0.07278,-0.04962 0.0066,-0.0066 0.07278,-0.04631 0.0099,-0.0033 0.07278,-0.04632 0.0066,-0.0066 0.07278,-0.04631 0.0066,-0.0033 0.07278,-0.04631 0.0066,-0.0033 0.07278,-0.04632 0.0066,-0.0033 0.07278,-0.04631 0.0099,-0.0033 0.07278,-0.04301 h 0.0033 l 33.251093,-20.5110714 0.0033,-0.00331 0.06947,-0.043007 0.0066,-0.00331 0.07278,-0.046315 0.0099,-0.00662 0.07278,-0.043007 0.0099,-0.00662 0.07278,-0.043007 0.0099,-0.00662 0.07278,-0.043007 0.0099,-0.00331 0.07609,-0.043007 0.0066,-0.00662 0.07278,-0.043007 0.0099,-0.00331 0.07278,-0.043007 0.0066,-0.00331 0.07609,-0.039699 0.0066,-0.00662 0.07609,-0.039699 0.0066,-0.00662 0.07278,-0.039699 0.0099,-0.00331 0.07609,-0.039699 0.0066,-0.00662 0.07278,-0.039699 0.0099,-0.00662 0.07278,-0.039699 0.0099,-0.00662 0.07278,-0.039699 0.0066,-0.00662 0.07609,-0.039699 0.0066,-0.00331 0.07278,-0.039699 0.0099,-0.00331 0.07278,-0.039699 0.0099,-0.00331 0.07609,-0.039699 0.0099,-0.00331 0.07609,-0.039699 0.0066,-0.00331 0.07609,-0.036391 0.0099,-0.00331 0.07609,-0.036391 0.0099,-0.00331 0.07278,-0.036391 0.0099,-0.00331 0.07609,-0.036391 0.0066,-0.00331 0.07609,-0.036391 0.0099,-0.00331 0.07609,-0.036391 0.0099,-0.00662 0.07609,-0.036391 0.0099,-0.00331 0.07609,-0.036391 0.0099,-0.00331 0.07609,-0.033082 0.0099,-0.00331 0.07609,-0.033082 0.0066,-0.00662 0.07609,-0.033082 0.0066,-0.00331 0.07609,-0.033082 0.0099,-0.00662 0.07609,-0.033082 0.0099,-0.00331 0.07609,-0.033082 0.0099,-0.00331 0.07609,-0.033082 0.0099,-0.00331 0.07609,-0.033082 0.0099,-0.00331 0.07609,-0.033082 0.0099,-0.00331 0.07609,-0.029774 0.0099,-0.00331 0.07609,-0.033082 0.0099,-0.00331 0.0794,-0.033082 0.0099,-0.00331 0.0794,-0.033082 0.0099,-0.00662 0.07609,-0.029774 0.0066,-0.00331 0.0794,-0.029774 0.0099,-0.00331 0.07609,-0.029774 0.0066,-0.00331 0.0794,-0.029774 0.0099,-0.00331 0.0794,-0.026466 0.0099,-0.00331 0.0794,-0.029774 0.0099,-0.00331 0.0794,-0.029774 0.0099,-0.00331 0.0794,-0.026466 0.0099,-0.00331 0.0794,-0.026466 0.0099,-0.00331 0.07609,-0.026466 0.0099,-0.00331 0.0794,-0.026466 0.0099,-0.00331 0.07609,-0.026466 0.0099,-0.00331 0.0794,-0.026466 0.0066,-0.00331 0.0794,-0.026466 0.0099,-0.00331 0.0794,-0.026466 0.0099,-0.00331 0.0794,-0.026466 0.0099,-0.00331 0.0794,-0.023158 0.0066,-0.00331 0.0794,-0.023158 0.0099,-0.00331 0.0794,-0.0231577 h 0.0099 l 0.0794,-0.0231577 0.0099,-0.003308 0.0794,-0.0231577 0.0066,-0.003308 0.0794,-0.0231577 0.0066,-0.003308 0.0794,-0.0231577 0.0099,-0.003308 0.0794,-0.0231577 0.0099,-0.003308 0.0794,-0.0231577 0.0099,-0.003308 0.0794,-0.0198494 0.0099,-0.003308 0.0794,-0.0198494 0.0066,-0.003308 0.0794,-0.0231577 0.0079,-0.003308 0.08271,-0.0198494 h 0.0066 l 0.0794,-0.0231577 h 0.0099 l 0.08171,-0.0198494 0.0099,-0.003308 0.08271,-0.0198494 0.0099,-0.003308 0.0794,-0.0198494 h 0.0099 l 0.08271,-0.0198494 h 0.0099 l 0.0794,-0.0198494 0.0099,-0.003308 0.0794,-0.0165412 0.0099,-0.003308 0.0794,-0.0198494 0.0099,-0.003308 0.0794,-0.0165412 h 0.0099 l 0.0794,-0.0165412 0.0099,-0.003308 0.0794,-0.0165412 h 0.0066 l 0.0794,-0.0165412 0.0099,-0.003308 0.08271,-0.0165412 h 0.0066 l 0.08271,-0.0165412 0.0066,-0.003308 0.08271,-0.0165412 0.0099,-0.003308 0.08271,-0.0165412 0.0099,-0.003308 0.08271,-0.013233 h 0.0099 l 0.0794,-0.013233 0.0099,-0.003308 0.08271,-0.0165412 0.0099,-0.003308 0.08271,-0.013233 h 0.0099 l 0.0794,-0.0132329 0.0099,-0.003308 0.08271,-0.013233 0.0099,-0.003308 0.0794,-0.013233 h 0.0066 l 0.0794,-0.013233 h 0.0099 l 0.08271,-0.0132329 0.0099,-0.003308 0.08271,-0.0132329 h 0.0099 l 0.08271,-0.013233 h 0.0099 l 0.08271,-0.0132329 h 0.0099 l 0.08271,-0.009925 h 0.0099 l 0.0794,-0.009925 h 0.0099 l 0.08271,-0.009925 0.0099,-0.003308 0.08271,-0.009925 0.0066,-0.003308 0.08271,-0.006616 h 0.0099 l 0.0794,-0.009925 h 0.0099 l 0.0794,-0.009925 h 0.0099 l 0.08271,-0.009925 h 0.0099 l 0.08271,-0.009925 h 0.0099 l 0.0794,-0.006616 h 0.0099 l 0.08271,-0.009925 0.0099,-0.003308 0.08271,-0.006616 0.0099,-0.003308 0.08271,-0.006616 h 0.0099 l 0.08138,-0.006616 h 0.0099 l 0.08271,-0.0066165 h 0.0099 l 0.08271,-0.0033082 0.0099,-0.0033082 0.08271,-0.0066165 0.0066,-0.0033082 0.08271,-0.0033082 h 0.0099 l 0.08271,-0.0066165 h 0.0066 l 0.08271,-0.0033082 h 0.0099 l 0.08271,-0.0033082 h 0.0099 l 0.08271,-0.0033082 h 0.0099 l 0.08271,-0.0033082 0.0099,-0.0033082 0.08271,-0.0033082 h 0.0099 l 0.08271,-0.0033082 h 0.0099 l 0.08271,-0.0033082 h 0.0099 l 0.08271,-0.0033082 h 0.0099 l 0.08271,-0.0033082 h 0.0066 l 0.08271,-0.0033082 h 0.102556 l 0.08271,-0.0033082 h 0.191877 z m -0.07609,8.9322406 h -0.05426 l -0.05426,6.616e-4 h -0.05392 l -0.05624,0.00132 -0.05624,0.00132 -0.05624,0.00165 -0.05624,0.00331 -0.05624,0.00331 -0.05624,0.00331 -0.05293,0.00331 -0.05624,0.00331 -0.05293,0.00331 -0.05293,0.00331 -0.05293,0.00331 -0.05624,0.00331 -0.05293,0.00331 -0.05624,0.00662 -0.05624,0.00662 -0.05293,0.00662 -0.05624,0.00662 -0.05624,0.00662 -0.05624,0.00662 -0.05293,0.00662 -0.05624,0.00662 -0.05293,0.00662 -0.05293,0.00662 -0.05624,0.00662 -0.05293,0.00662 -0.05293,0.00662 -0.05293,0.00662 -0.05293,0.00662 -0.05624,0.00662 -0.05293,0.00992 -0.05293,0.00662 -0.05624,0.00992 -0.05293,0.00992 -0.05293,0.00992 -0.05293,0.00992 -0.05293,0.00992 -0.05293,0.00992 -0.05293,0.00992 -0.05293,0.00662 -0.05624,0.00992 -0.05293,0.00992 -0.05624,0.00992 -0.05293,0.00992 -0.05293,0.00992 -0.05293,0.00992 -0.05293,0.013233 -0.05293,0.013233 -0.05293,0.013233 -0.05293,0.00992 -0.05293,0.00992 -0.05293,0.013233 -0.05293,0.013233 -0.05293,0.013233 -0.05293,0.013233 -0.05293,0.013233 -0.05293,0.013233 -0.05293,0.013233 -0.05293,0.013233 -0.05293,0.013233 -0.05293,0.013233 -0.05293,0.016541 -0.05293,0.013233 -0.05293,0.016541 -0.04962,0.016541 -0.05293,0.016541 -0.05293,0.016541 -0.05293,0.016541 -0.05293,0.016541 -0.05293,0.016541 -0.04962,0.016541 -0.05293,0.016541 -0.05293,0.019849 -0.05293,0.016541 -0.05293,0.016541 -0.05293,0.019849 -0.05293,0.016541 -0.05293,0.016541 -0.04962,0.016541 -0.05293,0.019849 -0.05293,0.019849 -0.05293,0.019849 -0.04962,0.019849 -0.05293,0.019849 -0.04962,0.019849 -0.04962,0.019849 -0.05293,0.023158 -0.05293,0.019849 -0.05293,0.019849 -0.05293,0.019849 -0.04962,0.023158 -0.04962,0.019849 -0.05293,0.023158 -0.04962,0.02316 -0.04962,0.02316 -0.04962,0.02316 -0.05293,0.02316 -0.04962,0.02316 -0.05293,0.02316 -0.04962,0.02316 -0.04962,0.02316 -0.04962,0.02316 -0.05293,0.02316 -0.04962,0.02316 -0.04962,0.02316 -0.04962,0.02647 -0.04962,0.02647 -0.04962,0.02316 -0.04962,0.02647 -0.04962,0.02316 -0.04962,0.02647 -0.04962,0.02647 -0.04962,0.02646 -0.04962,0.02647 -0.04962,0.02647 -0.04962,0.02977 -0.04632,0.02647 -0.04962,0.02647 -0.04632,0.02647 -0.04962,0.02977 -0.04962,0.02977 -0.04962,0.02977 -0.04632,0.02647 -0.04962,0.02977 -0.04631,0.02977 -0.04962,0.02977 -0.04962,0.02977 -0.05293,0.03308 -33.214702,20.471372 -0.05624,0.03639 -0.05293,0.03308 -0.04962,0.03308 -0.04962,0.03308 -0.04962,0.03308 -0.04962,0.03308 -0.04962,0.03308 -0.04962,0.03308 -0.04962,0.03308 -0.04962,0.03308 -0.04962,0.03308 -0.04962,0.03308 -0.04962,0.03639 -0.04632,0.03308 -0.04631,0.03308 -0.04962,0.03308 -0.04632,0.03308 -0.04631,0.03308 -0.04631,0.03308 -0.04632,0.03308 -0.04631,0.03308 -0.04631,0.03308 -0.04632,0.03639 -0.04631,0.03308 -0.04631,0.03639 -0.04632,0.03639 -0.04631,0.03639 -0.04631,0.03639 -0.04632,0.03639 -0.04632,0.03639 -0.04301,0.03639 -0.04631,0.03639 -0.04632,0.03639 -0.04301,0.03639 -0.04631,0.03639 -0.04631,0.03639 -0.04301,0.03639 -0.04631,0.03639 -0.04301,0.03639 -0.04301,0.03639 -0.04301,0.0397 -0.04301,0.0397 -0.04301,0.03639 -0.04301,0.03639 -0.04301,0.0397 -0.04301,0.0397 -0.04301,0.0397 -0.04301,0.0397 -0.04301,0.0397 -0.04301,0.0397 -0.04301,0.0397 -0.04301,0.0397 -0.04301,0.0397 -0.04301,0.0397 -0.04301,0.0397 -0.0397,0.0397 -0.04301,0.0397 -0.0397,0.04301 -0.04301,0.0397 -0.0397,0.04301 -0.0397,0.0397 -0.0397,0.04301 -0.0397,0.0397 -0.0397,0.04301 -0.0397,0.04301 -0.04301,0.04301 -0.0397,0.0397 -0.0397,0.04301 -0.0397,0.04301 -0.0397,0.04301 -0.03639,0.04301 -0.0397,0.04301 -0.0397,0.04301 -0.0397,0.04301 -0.0397,0.04632 -0.0397,0.04301 -0.03639,0.04301 -0.03639,0.04301 -0.0397,0.04631 -0.03639,0.04301 -0.0397,0.04301 -0.03639,0.04632 -0.03639,0.04301 -0.03639,0.04631 -0.03639,0.04631 -0.03639,0.04632 -0.03639,0.04631 -0.03639,0.04631 -0.03639,0.04632 -0.03308,0.04631 -0.03639,0.04631 -0.03639,0.04632 -0.03639,0.04631 -0.03639,0.04631 -0.03308,0.04632 -0.03308,0.04631 -0.03308,0.04631 -0.03308,0.04962 -0.03308,0.04631 -0.03308,0.04631 -0.03308,0.04962 -0.03308,0.04631 -0.03308,0.04632 -0.03308,0.04631 -0.03308,0.04631 -0.02977,0.04962 -0.03308,0.04962 -0.03308,0.04632 -0.03308,0.04962 -0.02977,0.04962 -0.02977,0.04631 -0.02978,0.04962 -0.02977,0.04962 -0.02977,0.04962 -0.02977,0.04962 -0.03308,0.04962 -0.03308,0.04962 -0.02977,0.04962 -0.02977,0.04962 -0.02977,0.04962 -0.02977,0.04962 -0.02977,0.04962 -0.02977,0.04962 -0.02978,0.04962 -0.02977,0.04962 -0.02977,0.04962 -0.02977,0.04962 -0.02977,0.05293 -0.02977,0.04962 -0.02977,0.04962 -0.02977,0.05293 -0.02646,0.04962 -0.02647,0.05293 -0.02647,0.05293 -0.02647,0.05293 -0.02647,0.04962 -0.02647,0.04962 -0.02647,0.05293 -0.02647,0.04962 -0.02647,0.05293 -0.02316,0.04962 -0.02647,0.05293 -0.02647,0.05293 -0.02647,0.05293 -0.02647,0.05293 -0.02647,0.05293 -0.02316,0.05293 -0.02316,0.05293 -0.02316,0.05293 -0.02316,0.05293 -0.02316,0.05293 -0.02316,0.05293 -0.02316,0.05293 -0.02316,0.05293 -0.02316,0.05293 -0.01985,0.05293 -0.02316,0.05293 -0.02316,0.05624 -0.02316,0.05293 -0.02316,0.05293 -0.02316,0.05293 -0.01985,0.05293 -0.02316,0.05624 -0.02316,0.05293 -0.01985,0.05293 -0.01985,0.05624 -0.01985,0.05293 -0.01985,0.05624 -0.01985,0.05293 -0.01985,0.05624 -0.01985,0.05624 -0.01985,0.05624 -0.01654,0.05624 -0.01985,0.05293 -0.01985,0.05624 -0.01654,0.05624 -0.01654,0.05293 -0.01654,0.05624 -0.01985,0.05624 -0.01654,0.05293 -0.01654,0.05293 -0.01654,0.05624 -0.01985,0.05624 -0.01654,0.05624 -0.01654,0.05293 -0.01654,0.05624 -0.01654,0.05624 -0.01654,0.05624 -0.01654,0.05624 -0.01654,0.05624 -0.01323,0.05624 -0.01323,0.05624 -0.01654,0.05624 -0.01323,0.05624 -0.01654,0.05624 -0.01323,0.05624 -0.01323,0.05624 -0.01323,0.05955 -0.01323,0.05624 -0.01323,0.05624 -0.01323,0.05624 -0.01323,0.05624 -0.01323,0.05624 -0.01323,0.05624 -0.0099,0.05624 -0.01323,0.05624 -0.0099,0.05624 -0.0099,0.05955 -0.0099,0.05955 -0.0099,0.05955 -0.0099,0.05955 -0.0099,0.05624 -0.0099,0.05624 -0.0099,0.05955 -0.0099,0.05955 -0.0099,0.05624 -0.0099,0.05624 -0.0099,0.05624 -0.0099,0.05955 -0.0066,0.05955 -0.0066,0.05955 -0.0066,0.05624 -0.0099,0.05955 -0.0099,0.05624 -0.0066,0.05955 -0.0066,0.05955 -0.0066,0.05955 -0.0066,0.05955 -0.0066,0.05955 -0.0066,0.05955 -0.0066,0.05624 -0.0066,0.05955 -0.0066,0.05955 -0.0033,0.05955 -0.0066,0.05955 -0.0066,0.05955 -0.0033,0.05955 -0.0033,0.05955 -0.0033,0.05955 -0.0033,0.05955 -0.0033,0.05955 -0.0033,0.05955 -0.0033,0.05955 -0.0033,0.05955 -0.0033,0.05955 -0.0033,0.05955 v 0.05955 l -0.0033,0.05955 -0.0033,0.05955 v 0.05955 l -0.0033,0.05955 V 85.55255 l 0.0033,0.05955 v 0.178645 l 0.0033,0.05624 0.0033,0.05955 0.0033,0.05955 0.0033,0.05955 0.0033,0.05955 0.0033,0.05955 0.0033,0.05955 0.0033,0.05955 0.0033,0.05955 0.0066,0.05955 0.0033,0.05955 0.0033,0.05955 0.0033,0.05955 0.0066,0.05624 0.0066,0.05955 0.0066,0.05624 0.0033,0.05955 0.0066,0.05624 0.0066,0.05624 0.0066,0.05624 0.0066,0.05624 0.0066,0.05955 0.0066,0.05624 0.0066,0.05624 0.0066,0.05955 0.0066,0.05955 0.0066,0.05624 0.0066,0.05955 0.0099,0.05624 0.0099,0.05624 0.0099,0.05624 0.0099,0.05624 0.0099,0.05955 0.0099,0.05624 0.0099,0.05624 0.0099,0.05624 0.0099,0.05624 0.01323,0.05624 0.0099,0.05624 0.0099,0.05624 0.0099,0.05624 0.01323,0.05624 0.01323,0.05624 0.0099,0.05624 0.01323,0.05624 0.01323,0.05624 0.01323,0.05624 0.01323,0.05624 0.01323,0.05624 0.01323,0.05624 0.01323,0.05624 0.01323,0.05293 0.01654,0.05293 0.01323,0.05624 0.01323,0.05624 0.01323,0.05624 0.01654,0.05624 0.01323,0.05293 0.01323,0.05624 0.01323,0.05293 0.01654,0.05624 0.01323,0.05293 0.01654,0.05624 0.01654,0.05624 0.01654,0.05293 0.01654,0.05624 0.01654,0.05624 0.01654,0.05293 0.01654,0.05624 0.01985,0.05293 0.01985,0.05293 0.01985,0.05293 0.01985,0.05293 0.01654,0.05293 0.01985,0.05624 0.01985,0.05293 0.01985,0.05293 0.01985,0.05293 0.01985,0.05293 0.01985,0.05293 0.01985,0.05293 0.01985,0.05293 0.01985,0.05293 0.01985,0.05293 0.02316,0.05293 0.02316,0.05293 0.01985,0.05293 0.01985,0.05293 0.01985,0.05293 0.01985,0.05293 0.01985,0.05293 0.02316,0.05293 0.02316,0.05293 0.02316,0.05293 0.02316,0.05293 0.02316,0.05293 0.02316,0.05293 0.02316,0.05293 0.02316,0.05293 0.02316,0.05293 0.02316,0.05293 0.02316,0.05293 0.02316,0.04962 0.02647,0.05293 0.02647,0.04962 0.02647,0.05293 0.02647,0.04962 0.02647,0.04962 0.02647,0.04962 0.02646,0.04962 0.02647,0.04962 0.02647,0.04962 0.02977,0.04962 0.02647,0.04962 0.02647,0.04962 0.02647,0.04962 0.02977,0.04962 0.02977,0.04962 0.02647,0.04962 0.02647,0.04962 0.02647,0.04962 0.02977,0.04962 0.02647,0.04962 0.02977,0.04632 0.02977,0.04962 0.02977,0.04632 0.02978,0.04962 0.02977,0.04962 0.02977,0.04631 0.02977,0.04632 0.02977,0.04632 0.02977,0.04632 0.02977,0.04962 0.02977,0.04962 0.03308,0.04632 0.02977,0.04632 0.02977,0.04962 0.02977,0.04632 0.02977,0.04631 0.03308,0.04632 0.03308,0.04632 0.03308,0.04962 0.03308,0.04631 0.03308,0.04632 0.03308,0.04631 0.03308,0.04632 0.03308,0.04632 0.03308,0.04632 0.03308,0.04631 0.03639,0.04632 0.03639,0.04632 0.03308,0.04631 0.03308,0.04632 0.03308,0.04631 0.03308,0.04632 0.03639,0.04301 0.03639,0.04301 0.03639,0.04631 0.03639,0.04301 0.03639,0.04631 0.03639,0.04301 0.03639,0.04301 0.03639,0.04301 0.03639,0.04301 0.03639,0.04301 0.03639,0.04301 0.03639,0.04301 0.03639,0.04301 0.03639,0.04301 0.03639,0.04301 0.03639,0.04301 0.0397,0.04301 0.0397,0.04301 0.03639,0.04301 0.0397,0.0397 0.0397,0.04301 0.0397,0.0397 0.0397,0.04301 0.03639,0.04301 0.0397,0.04301 0.0397,0.0397 0.0397,0.0397 0.0397,0.0397 0.0397,0.0397 0.0397,0.04301 0.0397,0.0397 0.0397,0.0397 0.0397,0.0397 0.0397,0.0397 0.0397,0.0397 0.04301,0.0397 0.0397,0.0397 0.0397,0.0397 0.04301,0.0397 0.0397,0.0397 0.0397,0.0397 0.04301,0.0397 0.04301,0.03639 0.04301,0.03639 0.04301,0.0397 0.04301,0.0397 0.04301,0.03639 0.04301,0.03639 0.04301,0.0397 0.04301,0.0397 0.04301,0.03639 0.04631,0.03639 0.04631,0.03639 0.04632,0.03639 0.04301,0.03639 0.04301,0.03639 0.04631,0.03639 0.04301,0.03639 0.04632,0.03308 0.04301,0.03639 0.04631,0.03639 0.04631,0.03639 0.04632,0.03639 0.04301,0.03308 0.04631,0.03639 0.04631,0.03308 0.04632,0.03639 0.04631,0.03639 0.04631,0.03308 0.04632,0.03308 0.04962,0.03308 0.04631,0.03308 0.04632,0.03308 0.04631,0.03308 0.04631,0.03308 0.04632,0.03308 0.04631,0.03308 0.04962,0.03308 0.04962,0.02977 0.04962,0.03308 0.04631,0.03308 0.04962,0.03308 0.04962,0.03308 0.04632,0.02977 0.04962,0.02977 0.04962,0.02977 0.04962,0.02977 0.04962,0.02977 0.04962,0.02977 0.05293,0.02977 0.04962,0.02978 0.04962,0.02977 0.05624,0.03308 34.630628,20.246415 0.04301,0.0265 0.03639,0.0198 0.0397,0.0199 0.0397,0.0198 0.0397,0.0199 0.03639,0.0232 0.0397,0.0199 0.0397,0.0199 0.0397,0.0198 0.0397,0.0232 0.0397,0.0199 0.0397,0.0198 0.0397,0.0198 0.0397,0.0199 0.0397,0.0198 0.0397,0.0199 0.0397,0.0199 0.0397,0.0198 0.03639,0.0199 0.0397,0.0199 0.0397,0.0198 0.0397,0.0165 0.0397,0.0198 0.0397,0.0165 0.0397,0.0165 0.0397,0.0165 0.0397,0.0199 0.0397,0.0198 0.0397,0.0165 0.0397,0.0199 0.0397,0.0165 0.0397,0.0165 0.0397,0.0165 0.0397,0.0165 0.0397,0.0165 0.0397,0.0165 0.0397,0.0165 0.0397,0.0165 0.0397,0.0165 0.0397,0.0132 0.04301,0.0165 0.0397,0.0165 0.0397,0.0165 0.0397,0.0165 0.0397,0.0165 0.0397,0.0132 0.0397,0.0165 0.0397,0.0132 0.0397,0.0132 0.04301,0.0132 0.0397,0.0132 0.03639,0.0132 0.08601,0.0265 0.08271,0.0265 0.08271,0.0232 0.08271,0.0232 0.08271,0.0232 0.0827,0.0232 0.08271,0.0232 0.08271,0.0232 0.08271,0.0232 0.08271,0.0199 0.08271,0.0199 0.08271,0.0198 0.08271,0.0165 0.08271,0.0199 0.08271,0.0165 0.08271,0.0165 0.08271,0.0165 0.08271,0.0132 0.08271,0.0165 0.0827,0.0132 0.08271,0.0132 0.08602,0.0132 0.08271,0.0132 0.08601,0.01 0.08601,0.01 0.08601,0.01 0.08601,0.007 0.08271,0.007 0.08601,0.007 0.08271,0.007 0.08601,0.007 0.08602,0.007 0.0827,0.007 0.08271,0.003 0.08271,0.003 0.08602,0.003 h 0.423454 l 0.08601,-0.003 h 0.08601 l 0.08601,-0.003 0.08601,-0.003 0.08601,-0.007 0.08601,-0.007 0.08601,-0.003 0.08601,-0.007 0.08601,-0.007 0.08602,-0.007 0.08271,-0.007 0.08601,-0.01 0.08601,-0.01 0.08271,-0.01 0.08601,-0.01 0.08271,-0.0132 0.08601,-0.0132 0.08271,-0.0132 0.08601,-0.0132 0.08271,-0.0132 0.08271,-0.0165 0.08271,-0.0132 0.08601,-0.0165 0.08271,-0.0165 0.08271,-0.0198 0.08271,-0.0165 0.08271,-0.0198 0.08271,-0.0199 0.08271,-0.0199 0.08271,-0.0198 0.08271,-0.0232 0.0827,-0.0232 0.08271,-0.0232 0.08271,-0.0232 0.08601,-0.0265 0.0397,-0.0132 0.0397,-0.0132 0.0397,-0.0132 0.04301,-0.0132 0.0397,-0.0132 0.04301,-0.0132 0.0397,-0.0132 0.0397,-0.0132 0.04301,-0.0132 0.0397,-0.0132 0.0397,-0.0132 0.04301,-0.0165 0.0397,-0.0132 0.04301,-0.0132 0.0397,-0.0165 0.0397,-0.0132 0.0397,-0.0132 0.0397,-0.0132 0.04301,-0.0165 0.0397,-0.0132 0.0397,-0.0165 0.0397,-0.0165 0.0397,-0.0165 0.0397,-0.0165 0.0397,-0.0165 0.0397,-0.0165 0.0397,-0.0165 0.0397,-0.0165 0.0397,-0.0165 0.0397,-0.0165 0.0397,-0.0199 0.0397,-0.0199 0.0397,-0.0165 0.0397,-0.0199 0.0397,-0.0199 0.0397,-0.0165 0.0397,-0.0199 0.0397,-0.0198 0.0397,-0.0199 0.03639,-0.0199 0.0397,-0.0198 0.0397,-0.0199 0.0397,-0.0198 0.0397,-0.0199 0.0397,-0.0199 0.0397,-0.0198 0.0397,-0.0199 0.0397,-0.0199 0.03639,-0.0198 0.0397,-0.0199 0.0397,-0.0199 0.04301,-0.0232 38.365623,-21.381141 0.0463,-0.02316 0.043,-0.02316 0.0397,-0.02316 0.0397,-0.02316 0.0397,-0.02316 0.0397,-0.02647 0.043,-0.02316 0.0397,-0.02316 0.0397,-0.02316 0.0397,-0.02316 0.0397,-0.02647 0.0397,-0.02647 0.0397,-0.02316 0.0397,-0.02316 0.0397,-0.02316 0.0397,-0.02647 0.0397,-0.02647 0.0397,-0.02316 0.0397,-0.02647 0.0397,-0.02316 0.0364,-0.02647 0.0364,-0.02647 0.0364,-0.02647 0.0364,-0.02647 0.0364,-0.02647 0.0397,-0.02647 0.0364,-0.02647 0.0397,-0.02647 0.0364,-0.02647 0.0364,-0.02647 0.0364,-0.02647 0.0364,-0.02647 0.0364,-0.02647 0.0397,-0.02647 0.0364,-0.02977 0.0364,-0.02647 0.0364,-0.02977 0.0364,-0.02647 0.0364,-0.02977 0.0364,-0.02977 0.0364,-0.02977 0.0364,-0.02647 0.0364,-0.02647 0.0364,-0.02977 0.0331,-0.02978 0.0364,-0.02977 0.0364,-0.02977 0.0331,-0.02647 0.0364,-0.02977 0.0364,-0.03308 0.0331,-0.02977 0.0364,-0.02977 0.0331,-0.02978 0.0331,-0.02977 0.0331,-0.03308 0.0364,-0.02977 0.0331,-0.03308 0.0331,-0.02977 0.0331,-0.03308 0.0331,-0.03308 0.0331,-0.02978 0.0331,-0.03308 0.0331,-0.02977 0.0331,-0.03308 0.0331,-0.03308 0.0331,-0.03308 0.0331,-0.03308 0.0298,-0.03308 0.0331,-0.03308 0.0298,-0.03308 0.0331,-0.03308 0.0331,-0.03308 0.0331,-0.03308 0.0298,-0.03308 0.0298,-0.03308 0.0298,-0.03308 0.0298,-0.03308 0.0331,-0.03308 0.0298,-0.03308 0.0298,-0.03308 0.0298,-0.03308 0.0298,-0.03308 0.0298,-0.03308 0.0298,-0.03308 0.0298,-0.03308 0.0298,-0.03639 0.0298,-0.03639 0.0298,-0.03639 0.0298,-0.03308 0.0298,-0.03308 0.0298,-0.03308 0.0298,-0.03639 0.0298,-0.03308 0.0298,-0.03639 0.0265,-0.03308 0.0265,-0.03639 0.0265,-0.03639 0.0265,-0.03308 0.0298,-0.03639 0.0265,-0.03639 0.0265,-0.03639 0.0265,-0.03639 0.0265,-0.03639 0.0265,-0.03639 0.0265,-0.03639 0.0265,-0.03639 0.0265,-0.03639 0.0265,-0.03639 0.0265,-0.03639 0.0265,-0.03639 0.0265,-0.03639 0.0232,-0.03639 0.0232,-0.0397 0.0265,-0.0397 0.0265,-0.03639 0.0232,-0.03639 0.0232,-0.03639 0.0265,-0.0397 0.0265,-0.03639 0.0232,-0.03639 0.0232,-0.0397 0.0232,-0.0397 0.0232,-0.0397 0.0232,-0.0397 0.0232,-0.03639 0.0232,-0.0397 0.0232,-0.0397 0.0232,-0.03639 0.0232,-0.0397 0.0232,-0.0397 0.0232,-0.0397 0.0198,-0.0397 0.0199,-0.0397 0.0232,-0.0397 0.0232,-0.0397 0.0199,-0.0397 0.0232,-0.0397 0.0232,-0.0397 0.0198,-0.0397 0.0199,-0.0397 0.0198,-0.04301 0.0199,-0.0397 0.0232,-0.0397 0.0232,-0.0397 0.0198,-0.0397 0.0199,-0.0397 0.0199,-0.0397 0.0198,-0.04301 0.0199,-0.0397 0.0198,-0.0397 0.0199,-0.04301 0.0199,-0.0397 0.0198,-0.0397 0.0199,-0.04301 0.0199,-0.04301 0.0198,-0.04301 0.0199,-0.0397 0.0165,-0.0397 0.0165,-0.04301 0.0165,-0.04301 0.0165,-0.04301 0.0165,-0.0397 0.0165,-0.04301 0.0166,-0.04301 0.0165,-0.04301 0.0165,-0.0397 0.0165,-0.04301 0.0165,-0.04301 0.0165,-0.04301 0.0165,-0.04301 0.0165,-0.04301 0.0132,-0.04301 0.0132,-0.04301 0.0132,-0.04301 0.0132,-0.04301 0.0165,-0.04301 0.0165,-0.04301 0.0165,-0.04301 0.0165,-0.04301 0.0132,-0.04301 0.0165,-0.04301 0.0132,-0.04301 0.0132,-0.04301 0.0165,-0.04301 0.0132,-0.04301 0.0132,-0.04301 0.0132,-0.04301 0.0132,-0.04301 0.01,-0.04301 0.0132,-0.04301 0.0132,-0.04301 0.0132,-0.04301 0.0132,-0.04301 0.01,-0.04301 0.01,-0.04631 0.0132,-0.04301 0.01,-0.04301 0.01,-0.04631 0.0132,-0.04301 0.01,-0.04301 0.01,-0.04301 0.01,-0.04301 0.01,-0.04631 0.01,-0.04301 0.01,-0.04301 0.007,-0.04632 0.01,-0.04632 0.01,-0.04301 0.007,-0.04631 0.01,-0.04301 0.01,-0.04632 0.01,-0.04631 0.01,-0.04301 0.01,-0.04632 0.007,-0.04632 0.01,-0.04632 0.007,-0.04301 0.01,-0.04301 0.007,-0.04632 0.007,-0.04632 0.007,-0.04631 0.007,-0.04632 0.007,-0.04631 0.007,-0.04632 0.007,-0.04632 0.003,-0.04632 0.007,-0.04301 0.003,-0.04631 0.007,-0.04632 0.007,-0.04301 0.007,-0.04631 0.003,-0.04632 0.003,-0.04632 0.003,-0.04632 0.003,-0.04631 0.007,-0.04632 0.003,-0.04632 0.003,-0.04631 0.003,-0.04632 0.003,-0.04631 0.003,-0.04632 0.003,-0.04632 0.003,-0.04631 0.003,-0.04632 0.003,-0.04631 0.003,-0.04632 0.003,-0.04631 v -0.09263 l 0.003,-0.04632 V 41.393988 l -0.003,-0.04069 -0.003,-0.04301 v -0.04301 l -0.003,-0.04301 v -0.04301 l -0.003,-0.04301 v -0.04301 l -0.003,-0.04301 -0.003,-0.0397 -0.003,-0.04301 -0.003,-0.04301 -0.003,-0.04301 -0.003,-0.0397 -0.003,-0.04301 -0.003,-0.0397 -0.003,-0.04301 -0.007,-0.04301 -0.003,-0.0397 -0.003,-0.0397 -0.007,-0.0397 -0.003,-0.0397 -0.007,-0.04301 -0.003,-0.0397 -0.007,-0.0397 -0.007,-0.04301 -0.003,-0.04301 -0.003,-0.0397 -0.007,-0.03639 -0.0132,-0.08701 -0.01,-0.08436 -0.0132,-0.08601 -0.0132,-0.08271 -0.0165,-0.08271 -0.0165,-0.08271 -0.0132,-0.08271 -0.0165,-0.08271 -0.0199,-0.08271 -0.0198,-0.08271 -0.0199,-0.08271 -0.0199,-0.08271 -0.0198,-0.08271 -0.0198,-0.08271 -0.0199,-0.08271 -0.0232,-0.08271 -0.0232,-0.08271 -0.0232,-0.08271 -0.0265,-0.08271 -0.0232,-0.0794 -0.0265,-0.0794 -0.0265,-0.0794 -0.0265,-0.0794 -0.0265,-0.0794 -0.0298,-0.0794 -0.0298,-0.0794 -0.0298,-0.07609 -0.0298,-0.0794 -0.0298,-0.0794 -0.0298,-0.0794 -0.0331,-0.07609 -0.0298,-0.0794 -0.0331,-0.07609 -0.0331,-0.07609 -0.0331,-0.07609 -0.0364,-0.07609 -0.0331,-0.07609 -0.0364,-0.07609 -0.0364,-0.07609 -0.0364,-0.07278 -0.0397,-0.07609 -0.0364,-0.07609 -0.0397,-0.07609 -0.0397,-0.07278 -0.0397,-0.07278 -0.0397,-0.07278 -0.0397,-0.07278 -0.0397,-0.07278 -0.043,-0.07278 -0.043,-0.07278 -0.043,-0.07278 -0.0463,-0.07278 -0.043,-0.06947 -0.043,-0.06947 -0.0463,-0.06947 -0.0463,-0.06947 -0.0463,-0.06947 -0.0463,-0.06947 -0.0463,-0.06947 -0.0463,-0.06947 -0.0496,-0.06616 -0.0496,-0.06616 -0.0496,-0.06616 -0.0496,-0.06616 -0.0496,-0.06617 -0.0529,-0.06616 -0.0529,-0.06616 -0.0529,-0.06616 -0.0529,-0.06616 -0.0529,-0.06286 -0.0562,-0.06286 -0.0529,-0.06286 -0.0562,-0.06286 -0.0562,-0.06286 -0.0562,-0.06286 -0.0562,-0.06286 -0.0562,-0.06286 -0.0596,-0.05955 -0.0596,-0.05955 -0.0596,-0.05955 -0.0595,-0.05955 -0.0596,-0.05955 -0.0629,-0.05955 -0.0629,-0.05955 -0.0629,-0.05624 -0.0629,-0.05624 -0.0629,-0.05624 -0.0628,-0.05624 -0.0629,-0.05624 -0.0662,-0.05624 -0.0662,-0.05293 -0.0662,-0.05293 -0.0629,-0.05293 -0.0695,-0.05624 -0.0298,-0.02316 -0.0331,-0.02647 -0.0331,-0.02647 -0.0331,-0.02647 -0.0331,-0.02647 -0.0331,-0.02316 -0.0331,-0.02647 -0.0331,-0.02647 -0.0364,-0.02647 -0.0364,-0.02647 -0.0331,-0.02647 -0.0331,-0.02647 -0.0331,-0.02647 -0.0331,-0.02316 -0.0331,-0.02647 -0.0364,-0.02647 -0.0331,-0.02316 -0.0331,-0.02316 -0.0364,-0.02647 -0.0364,-0.02316 -0.0364,-0.02316 -0.0331,-0.02316 -0.0364,-0.02316 -0.0364,-0.02316 -0.0364,-0.02316 -0.0364,-0.02316 -0.0364,-0.02316 -0.0364,-0.02316 -0.0364,-0.02316 -0.0364,-0.02316 -0.0364,-0.02316 -0.0364,-0.01985 -0.0364,-0.01985 -0.043,-0.02316 -37.435679,-21.963057 -0.05293,-0.03242 -0.04797,-0.02647 -0.04962,-0.02978 -0.04962,-0.02977 -0.04863,-0.02746 -0.04962,-0.02647 -0.04797,-0.02647 -0.04962,-0.02647 -0.04962,-0.02647 -0.04962,-0.02647 -0.04863,-0.02646 -0.04962,-0.02647 -0.04962,-0.02647 -0.04962,-0.02647 -0.04962,-0.02647 -0.04962,-0.02647 -0.04962,-0.02647 -0.05062,-0.02316 -0.04962,-0.02647 -0.04962,-0.02316 -0.04962,-0.02316 -0.04962,-0.02647 -0.05128,-0.02316 -0.04962,-0.02316 -0.04962,-0.02316 -0.05161,-0.02316 -0.04962,-0.02316 L 68.2003,10.001501 68.149022,9.978343 68.098732,9.955185 68.049112,9.932027 67.997832,9.912178 67.948212,9.892329 67.895282,9.87248 67.844332,9.849322 67.792062,9.829473 67.739132,9.806315 67.686202,9.786466 67.634922,9.766616 67.583642,9.746767 67.531702,9.726918 67.478772,9.707069 67.425842,9.68722 67.376222,9.667371 67.326602,9.65083 67.276982,9.634289 67.224052,9.61444 67.171122,9.597899 67.121502,9.581358 67.068572,9.564817 67.015642,9.548276 66.966022,9.531735 66.913092,9.515194 66.860162,9.498653 66.807232,9.482112 66.757612,9.465571 66.704682,9.44903 66.651752,9.432489 66.598822,9.415948 66.545892,9.402715 66.492962,9.386174 66.440032,9.372941 66.387102,9.3564 66.334172,9.343167 66.281242,9.329934 66.228312,9.316701 66.175382,9.30016 l -0.05293,-0.013233 -0.05293,-0.013233 -0.05293,-0.00992 -0.05293,-0.013233 -0.05293,-0.013233 -0.05293,-0.013233 -0.05293,-0.00992 -0.05293,-0.013233 -0.05293,-0.00992 -0.05293,-0.00992 -0.05293,-0.013233 -0.05293,-0.00992 -0.05293,-0.00992 -0.05293,-0.00992 -0.05293,-0.00992 -0.05293,-0.00992 -0.05293,-0.00992 -0.05624,-0.00992 -0.05293,-0.00662 -0.05293,-0.00662 -0.05293,-0.00662 -0.05293,-0.00662 -0.05293,-0.00992 -0.05293,-0.00992 -0.05293,-0.00662 -0.05624,-0.00992 -0.05293,-0.00662 -0.05293,-0.00992 -0.05293,-0.00662 -0.05293,-0.00662 -0.05293,-0.00662 -0.05293,-0.00662 -0.05293,-0.00662 -0.05624,-0.00662 -0.05293,-0.00331 -0.05293,-0.00662 -0.05293,-0.00662 -0.05293,-0.00331 -0.05293,-0.00331 -0.05293,-0.00331 -0.05293,-0.00331 -0.05293,-0.00331 -0.05624,-0.00331 -0.05624,-0.00331 -0.05293,-0.00331 -0.05293,-0.00331 h -0.05293 l -0.05293,-0.00331 -0.05293,-0.00331 h -0.05624 l -0.05293,-0.00331 -0.05293,-0.00331 -0.04962,-0.00331 -0.05293,-0.00331 h -0.109171 l -0.05293,-0.00331 h -0.105864 z"
     id="path2"
     style="fill:#f2f2f2;stroke-width:0.330824" />
</svg>
