<?xml version="1.0" encoding="UTF-8" standalone="no"?>
<!-- Generator: Adobe Illustrator 13.0.0, SVG Export Plug-In . SVG Version: 6.00 Build 14948)  -->

<svg
   version="1.1"
   id="Layer_1"
   x="0px"
   y="0px"
   width="128"
   height="128"
   viewBox="0 0 164.41898 164.41898"
   xml:space="preserve"
   xmlns="http://www.w3.org/2000/svg"
   xmlns:svg="http://www.w3.org/2000/svg"><defs
   id="defs13" />



<path
   style="fill:#ffffff;stroke-width:0.443162"
   d="m 60.632103,127.15424 c 0,0 -6.28315,3.65387 4.471504,4.8903 13.028962,1.48636 19.687915,1.2732 34.045915,-1.44427 0,0 3.774858,2.36693 9.046708,4.417 -32.18685,13.79474 -72.845187,-0.79902 -47.564127,-7.86303"
   id="path2" />

<path
   style="fill:#ffffff;stroke-width:0.443162"
   d="m 56.699041,109.15301 c 0,0 -7.047162,5.21645 3.71547,6.32968 13.917944,1.43584 24.909251,1.55328 43.928429,-2.10901 0,0 2.63061,2.66695 6.76708,4.12539 -38.915821,11.37952 -82.261049,0.89741 -54.410979,-8.34606"
   id="path3" />

<path
   style="fill:#ffffff;stroke-width:0.443162"
   d="m 89.855972,78.616931 c 7.93083,9.130909 -2.08374,17.347575 -2.08374,17.347575 0,0 20.137718,-10.395694 10.88937,-23.413576 -8.63767,-12.139979 -15.26161,-18.171856 20.597728,-38.969003 0,0 -56.287332,14.057983 -29.403358,45.035004"
   id="path4" />

<path
   style="fill:#ffffff;stroke-width:0.443162"
   d="m 132.42567,140.46905 c 0,0 4.64965,3.83113 -5.12074,6.795 -18.57868,5.62815 -77.32644,7.32768 -93.646323,0.22424 -5.866578,-2.55217 5.134918,-6.09392 8.59557,-6.8371 3.609111,-0.78263 5.671586,-0.63683 5.671586,-0.63683 -6.52423,-4.59603 -42.1699621,9.02455 -18.106268,12.92526 65.625197,10.64254 119.628465,-4.79235 102.606175,-12.47057"
   id="path5" />

<path
   style="fill:#ffffff;stroke-width:0.443162"
   d="m 63.653581,90.501648 c 0,0 -29.882854,7.097682 -10.582264,9.675112 8.149305,1.09106 24.394736,0.84422 39.526945,-0.423663 12.366878,-1.043203 24.784718,-3.261229 24.784718,-3.261229 0,0 -4.36072,1.867485 -7.51559,4.021692 -30.345508,7.98091 -88.967415,4.2681 -72.090922,-3.89539 14.272474,-6.899146 25.877113,-6.116522 25.877113,-6.116522"
   id="path6" />

<path
   style="fill:#ffffff;stroke-width:0.443162"
   d="m 117.25978,120.4656 c 30.84762,-16.02961 16.58489,-31.43392 6.6297,-29.358592 -2.44005,0.507863 -3.52801,0.947923 -3.52801,0.947923 0,0 0.90582,-1.419005 2.63593,-2.033227 19.69456,-6.923963 34.84095,20.421346 -6.3576,31.251786 0,4.4e-4 0.47728,-0.42633 0.61998,-0.80789"
   id="path7" />

<path
   style="fill:#ffffff;stroke-width:0.443162"
   d="m 98.661602,4.9321481e-7 c 0,0 17.083888,17.08965450678519 -16.20333,43.36871550678519 -26.692974,21.080327 -6.086829,33.099766 -0.0111,46.832469 C 66.866062,76.143201 55.431597,63.767903 63.102731,52.250124 74.362147,35.343052 105.55454,27.145886 98.661602,4.9321481e-7"
   id="path8" />

<path
   style="fill:#ffffff;stroke-width:0.443162"
   d="m 66.684809,163.90212 c 29.609863,1.8954 75.079171,-1.05162 76.156051,-15.06219 0,0 -2.07001,5.3113 -24.47096,9.52931 -25.272638,4.75602 -56.442878,4.20074 -74.930265,1.15267 4.43e-4,-4.5e-4 3.784603,3.13227 23.245174,4.38021"
   id="path9" />









</svg>
