<?xml version="1.0" encoding="UTF-8" standalone="no"?>
<svg
   viewBox="0 0 128 128"
   version="1.1"
   id="svg1"
   sodipodi:docname="js.svg"
   inkscape:version="1.4.2 (ebf0e940d0, 2025-05-08)"
   width="128"
   height="128"
   xmlns:inkscape="http://www.inkscape.org/namespaces/inkscape"
   xmlns:sodipodi="http://sodipodi.sourceforge.net/DTD/sodipodi-0.dtd"
   xmlns="http://www.w3.org/2000/svg"
   xmlns:svg="http://www.w3.org/2000/svg">
  <defs
     id="defs1" />
  <sodipodi:namedview
     id="namedview1"
     pagecolor="#ffffff"
     bordercolor="#000000"
     borderopacity="0.25"
     inkscape:showpageshadow="2"
     inkscape:pageopacity="0.0"
     inkscape:pagecheckerboard="true"
     inkscape:deskcolor="#d1d1d1"
     inkscape:zoom="3.5809524"
     inkscape:cx="35.325798"
     inkscape:cy="56.549202"
     inkscape:window-width="1878"
     inkscape:window-height="998"
     inkscape:window-x="0"
     inkscape:window-y="0"
     inkscape:window-maximized="1"
     inkscape:current-layer="svg1" />
  <path
     d="M 0,0 V 128 H 128 V 0 Z m 97.422221,58.085712 c 7.647489,0 13.145239,2.661271 17.107139,9.630159 l -9.36627,6.014286 c -2.06222,-3.697778 -4.2869,-5.154762 -7.740869,-5.154762 -3.523048,0 -5.755953,2.235143 -5.755953,5.154762 0,3.60838 2.235,5.069047 7.395635,7.303968 l 3.006747,1.288096 c 10.21968,4.382477 15.99008,8.850286 15.99008,18.895239 0,10.82921 -8.50684,16.7619 -19.931351,16.7619 -11.17054,0 -18.387476,-5.32298 -21.918651,-12.3 l 9.774604,-5.67897 c 2.578286,4.20978 5.932778,7.30437 11.865476,7.30437 4.983872,0 8.167852,-2.49116 8.167852,-5.93294 0,-4.124441 -3.27142,-5.585029 -8.757137,-7.984521 l -3.006747,-1.290476 c -8.679619,-3.697777 -14.445635,-8.33 -14.445635,-18.123015 0,-9.020953 6.873239,-15.888094 17.61508,-15.888096 z m -39.742858,0.686509 h 12.027778 v 41.061507 c 0,12.454602 -7.302174,18.123412 -17.960714,18.123412 -9.630476,0 -15.207332,-4.98411 -18.04365,-10.9869 l 9.790873,-5.92738 c 1.889523,3.35238 3.608301,6.1865 7.740873,6.1865 3.951746,0 6.444842,-1.546 6.44484,-7.557933 z"
     style="fill:#f7f7f7;stroke-width:1"
     id="path2" />
</svg>
