<?xml version="1.0" encoding="UTF-8" standalone="no"?>
<!--Generator: Adobe Illustrator 14.0.0, SVG Export Plug-In . SVG Version: 6.00 Build 43363)-->

<svg
   xml:space="preserve"
   id="Ebene_1"
   width="30"
   height="30"
   x="0px"
   y="0px"
   viewBox="0 0 947 947"
   version="1.1"
   xmlns="http://www.w3.org/2000/svg"
   xmlns:svg="http://www.w3.org/2000/svg"><defs
   id="defs1" />
	
	<g
   id="g7">
		<path
   d="m 687.3765,568.63158 c -9.1337,4.21555 -15.02947,5.51856 -43.83574,9.433 -29.10739,4.21556 -41.24629,13.47708 -41.24629,31.44336 0,17.36406 12.44604,27.49753 33.72454,27.49753 16.05925,0 29.36534,-5.21436 40.50645,-15.35176 8.12999,-7.52777 10.85104,-13.08455 10.85104,-22.31862 z"
   style="fill:#000080"
   id="path9" /><path
   d="m 473.5,111.5931 c -199.8,0 -362.03021,162.23021 -362.03021,362.03021 0,199.8 162.23021,361.96855 362.03021,361.96855 199.8,0 362.03021,-162.16855 362.03021,-361.96855 C 835.53021,273.82331 673.3,111.5931 473.5,111.5931 Z m 150.00332,105.98262 c 58.5,0 105.98262,47.54427 105.98262,106.04427 0,58.5 -47.48262,105.98261 -105.98262,105.98261 -58.5,0 -105.98262,-47.48261 -105.98262,-105.98261 0,-58.5 47.48262,-106.04427 105.98262,-106.04427 z m -417.7651,197.41497 h 30.4569 V 626.586 h 117.69681 v 26.75768 H 205.73822 Z m 444.33782,62.14688 c 42.15552,0 64.42806,16.32126 64.42806,46.73346 v 100.80371 c 0,8.53147 5.20005,13.44049 14.73522,13.44049 1.60593,0 2.90764,-0.0372 5.91875,-0.73984 v 20.59232 c -8.83258,2.30851 -13.06032,2.89772 -18.68105,2.89772 -17.66517,0 -26.20703,-7.79063 -28.11406,-25.15469 -19.2711,17.66517 -36.62144,25.15469 -58.20105,25.15469 -34.62774,0 -56.16647,-19.56451 -56.16647,-50.6793 0,-22.2822 10.1133,-37.61701 30.08698,-45.747 10.43851,-4.21555 16.32956,-5.50132 54.87175,-10.41947 21.57961,-2.60963 28.42233,-7.54711 28.42233,-18.98932 v -7.21348 c 0,-16.36035 -13.73491,-25.52461 -38.22526,-25.52461 -25.49405,0 -37.95132,9.41786 -40.25983,30.39525 h -27.49753 c 0.70259,-16.96258 3.88531,-26.80322 11.71419,-35.63581 11.44221,-12.74702 32.07614,-19.91412 56.96797,-19.91412 z m -259.87012,4.87063 h 27.12761 v 121.33438 c 0,20.57591 13.74793,33.72454 35.32754,33.72454 28.40479,0 46.79511,-22.86354 46.79511,-57.89277 V 482.0082 h 27.06596 v 171.33548 h -24.4765 v -23.85996 c -16.05925,22.58332 -32.02165,31.38171 -57.21459,31.38171 -33.32293,0 -54.62513,-18.2283 -54.62513,-46.73346 z"
   style="fill:#000080"
   id="path8" />
		
		<path
   id="path3"
   fill="#000080"
   d="m 941.5,111.5 c 0,-58.5 -47.5,-106 -106,-106 -58.5,0 -106,47.5 -106,106 0,58.5 47.5,106 106,106 58.5,0 106,-47.4 106,-106" />
		<g
   id="g6"
   fill="#ffffff"
   style="stroke:#ffffff;stroke-width:18.3984;stroke-dasharray:none;stroke-opacity:1"
   transform="matrix(1.0037028,0,0,1.0037028,-11.608496,-3.5663022)">
			
			
			
		</g>
		<path
   id="path7"
   fill="none"
   stroke="#808080"
   stroke-dasharray="40.8475"
   stroke-miterlimit="10"
   stroke-width="10.8612"
   d="m 878.47636,267.36225 c 32.51112,63.83192 49.49456,134.45454 49.49456,206.14424 0,250.67138 -203.50997,454.09942 -454.28238,454.09942 -250.77235,0 -454.282338,-203.42804 -454.282338,-454.09942 0,-250.67141 203.509988,-454.099442 454.282338,-454.099442 80.64703,0 159.74128,21.439003 229.22774,61.988791"
   style="stroke-width:40.212;stroke-dasharray:120.637;stroke-dashoffset:0" />
	</g>
</svg>
