<?xml version="1.0" encoding="UTF-8" standalone="no"?>
<!-- Created with Inkscape (http://www.inkscape.org/) -->

<svg
   version="1.0"
   id="svg2"
   sodipodi:version="0.32"
   inkscape:version="1.4.2 (ebf0e940d0, 2025-05-08)"
   sodipodi:docname="python-logo-only.svg"
   width="128"
   height="128"
   inkscape:export-filename="python-logo-only.png"
   inkscape:export-xdpi="232.44"
   inkscape:export-ydpi="232.44"
   xmlns:inkscape="http://www.inkscape.org/namespaces/inkscape"
   xmlns:sodipodi="http://sodipodi.sourceforge.net/DTD/sodipodi-0.dtd"
   xmlns:xlink="http://www.w3.org/1999/xlink"
   xmlns="http://www.w3.org/2000/svg"
   xmlns:svg="http://www.w3.org/2000/svg"
   xmlns:rdf="http://www.w3.org/1999/02/22-rdf-syntax-ns#"
   xmlns:cc="http://creativecommons.org/ns#"
   xmlns:dc="http://purl.org/dc/elements/1.1/">
  <metadata
     id="metadata371">
    <rdf:RDF>
      <cc:Work
         rdf:about="">
        <dc:format>image/svg+xml</dc:format>
        <dc:type
           rdf:resource="http://purl.org/dc/dcmitype/StillImage" />
      </cc:Work>
    </rdf:RDF>
  </metadata>
  <sodipodi:namedview
     inkscape:window-height="998"
     inkscape:window-width="1878"
     inkscape:pageshadow="2"
     inkscape:pageopacity="0.0"
     guidetolerance="10.0"
     gridtolerance="10.0"
     objecttolerance="10.0"
     borderopacity="1.0"
     bordercolor="#666666"
     pagecolor="#616161"
     id="base"
     inkscape:zoom="4.2923284"
     inkscape:cx="70.824031"
     inkscape:cy="46.245297"
     inkscape:window-x="0"
     inkscape:window-y="0"
     inkscape:current-layer="svg2"
     width="210mm"
     height="40mm"
     units="mm"
     inkscape:showpageshadow="2"
     inkscape:pagecheckerboard="true"
     inkscape:deskcolor="#d1d1d1"
     inkscape:document-units="pt"
     showgrid="false"
     inkscape:window-maximized="1" />
  <defs
     id="defs4">
    <linearGradient
       id="linearGradient2795">
      <stop
         style="stop-color:#b8b8b8;stop-opacity:0.49803922;"
         offset="0"
         id="stop2797" />
      <stop
         style="stop-color:#7f7f7f;stop-opacity:0;"
         offset="1"
         id="stop2799" />
    </linearGradient>
    <linearGradient
       id="linearGradient2787">
      <stop
         style="stop-color:#7f7f7f;stop-opacity:0.5;"
         offset="0"
         id="stop2789" />
      <stop
         style="stop-color:#7f7f7f;stop-opacity:0;"
         offset="1"
         id="stop2791" />
    </linearGradient>
    <linearGradient
       id="linearGradient3676">
      <stop
         style="stop-color:#b2b2b2;stop-opacity:0.5;"
         offset="0"
         id="stop3678" />
      <stop
         style="stop-color:#b3b3b3;stop-opacity:0;"
         offset="1"
         id="stop3680" />
    </linearGradient>
    <linearGradient
       id="linearGradient3236">
      <stop
         style="stop-color:#f4f4f4;stop-opacity:1"
         offset="0"
         id="stop3244" />
      <stop
         style="stop-color:white;stop-opacity:1"
         offset="1"
         id="stop3240" />
    </linearGradient>
    <linearGradient
       id="linearGradient4671">
      <stop
         style="stop-color:#ffd43b;stop-opacity:1;"
         offset="0"
         id="stop4673" />
      <stop
         style="stop-color:#ffe873;stop-opacity:1"
         offset="1"
         id="stop4675" />
    </linearGradient>
    <linearGradient
       id="linearGradient4689">
      <stop
         style="stop-color:#5a9fd4;stop-opacity:1;"
         offset="0"
         id="stop4691" />
      <stop
         style="stop-color:#306998;stop-opacity:1;"
         offset="1"
         id="stop4693" />
    </linearGradient>
    <linearGradient
       x1="224.23996"
       y1="144.75717"
       x2="-65.308502"
       y2="144.75717"
       id="linearGradient2987"
       xlink:href="#linearGradient4671"
       gradientUnits="userSpaceOnUse"
       gradientTransform="translate(100.2702,99.61116)" />
    <linearGradient
       x1="172.94208"
       y1="77.475983"
       x2="26.670298"
       y2="76.313133"
       id="linearGradient2990"
       xlink:href="#linearGradient4689"
       gradientUnits="userSpaceOnUse"
       gradientTransform="translate(100.2702,99.61116)" />
    <linearGradient
       inkscape:collect="always"
       xlink:href="#linearGradient4689"
       id="linearGradient2587"
       gradientUnits="userSpaceOnUse"
       gradientTransform="translate(100.2702,99.61116)"
       x1="172.94208"
       y1="77.475983"
       x2="26.670298"
       y2="76.313133" />
    <linearGradient
       inkscape:collect="always"
       xlink:href="#linearGradient4671"
       id="linearGradient2589"
       gradientUnits="userSpaceOnUse"
       gradientTransform="translate(100.2702,99.61116)"
       x1="224.23996"
       y1="144.75717"
       x2="-65.308502"
       y2="144.75717" />
    <linearGradient
       inkscape:collect="always"
       xlink:href="#linearGradient4689"
       id="linearGradient2248"
       gradientUnits="userSpaceOnUse"
       gradientTransform="translate(100.2702,99.61116)"
       x1="172.94208"
       y1="77.475983"
       x2="26.670298"
       y2="76.313133" />
    <linearGradient
       inkscape:collect="always"
       xlink:href="#linearGradient4671"
       id="linearGradient2250"
       gradientUnits="userSpaceOnUse"
       gradientTransform="translate(100.2702,99.61116)"
       x1="224.23996"
       y1="144.75717"
       x2="-65.308502"
       y2="144.75717" />
    <linearGradient
       inkscape:collect="always"
       xlink:href="#linearGradient4671"
       id="linearGradient2255"
       gradientUnits="userSpaceOnUse"
       gradientTransform="matrix(0.562541,0,0,0.567972,-11.5974,-7.60954)"
       x1="224.23996"
       y1="144.75717"
       x2="-65.308502"
       y2="144.75717" />
    <linearGradient
       inkscape:collect="always"
       xlink:href="#linearGradient4689"
       id="linearGradient2258"
       gradientUnits="userSpaceOnUse"
       gradientTransform="matrix(0.562541,0,0,0.567972,-11.5974,-7.60954)"
       x1="172.94208"
       y1="76.176224"
       x2="26.670298"
       y2="76.313133" />
    <radialGradient
       inkscape:collect="always"
       xlink:href="#linearGradient2795"
       id="radialGradient2801"
       cx="61.518883"
       cy="132.28575"
       fx="61.518883"
       fy="132.28575"
       r="29.036913"
       gradientTransform="matrix(1,0,0,0.177966,0,108.7434)"
       gradientUnits="userSpaceOnUse" />
  </defs>
  <path
     style="fill:#ffffff;fill-opacity:1;stroke-width:1"
     d="M 63.237845,0.00104476 C 57.959864,0.02530113 52.919509,0.47052012 48.484516,1.2467184 35.419583,3.5296507 33.047498,8.3080239 33.047497,17.120158 v 11.63815 h 30.874039 v 3.879383 H 33.047497 21.460736 c -8.972855,0 -16.8297439,5.334293 -19.2872784,15.481942 -2.83473466,11.631562 -2.96047052,18.889846 0,31.035066 2.1946371,9.040431 7.4357276,15.481939 16.4085804,15.481941 h 10.6152 V 80.685097 c 0,-10.079166 8.817043,-18.969826 19.287278,-18.969828 h 30.838056 c 8.584221,0 15.437022,-6.990765 15.437019,-15.517532 V 17.120158 C 94.759591,8.8445136 87.701046,2.6278899 79.322572,1.2467184 74.018873,0.37349372 68.515826,-0.02321192 63.237845,0.00104476 Z M 46.541395,9.3613916 c 3.189076,0 5.79338,2.6179314 5.79338,5.8368704 -2e-6,3.207529 -2.604304,5.801279 -5.79338,5.801279 -3.200509,-1e-6 -5.79338,-2.593751 -5.79338,-5.801279 -2e-6,-3.218938 2.592871,-5.8368704 5.79338,-5.8368704 z"
     id="path1948" />
  <path
     style="fill:#ffffff;fill-opacity:1;stroke-width:1"
     d="m 98.60985,32.637691 v 13.560046 c 0,10.51292 -9.011356,19.361324 -19.287278,19.361325 H 48.484516 c -8.44706,0 -15.437018,7.150574 -15.437019,15.517533 v 29.077575 c 0,8.27566 7.275724,13.14329 15.437019,15.51754 9.772987,2.84225 19.144768,3.35592 30.838056,0 7.772663,-2.22585 15.437022,-6.70541 15.437019,-15.51754 V 98.516024 H 63.921536 V 94.63664 h 30.838055 15.437029 c 8.97286,0 12.31651,-6.190394 15.43701,-15.481941 3.22336,-9.565504 3.08621,-18.764287 0,-31.035066 -2.21751,-8.834961 -6.45275,-15.481942 -15.43701,-15.481942 z M 81.265693,106.2748 c 3.200511,0 5.79338,2.59374 5.79338,5.80127 -10e-7,3.21894 -2.592871,5.83687 -5.79338,5.83687 -3.18908,0 -5.79338,-2.61793 -5.79338,-5.83687 2e-6,-3.20753 2.604297,-5.80127 5.79338,-5.80127 z"
     id="path1950" />
</svg>
